<svg width="38" height="44" viewBox="0 0 38 44" fill="none" xmlns="http://www.w3.org/2000/svg">
<g id="css-icon">
<path id="css-3" class="css-3" d="M19.3148 35.5328L19.3836 35.5525L19.4523 35.5329L28.7097 32.8924L28.6411 32.652L28.8902 32.6736L30.9465 9.02446L30.9701 8.75281H30.6975H8.11176H7.84052L7.86258 9.02315L8.23811 13.6235L8.25685 13.8531H8.48728H25.4927L25.1231 18.1412H14.0262H13.7554L13.777 18.4111L14.1525 23.1053L14.1709 23.3354H14.4017H24.6793L24.1913 28.9133L19.4442 30.232L14.5936 28.8594L14.2863 25.317L14.2664 25.0886H14.0372H9.50719H9.23457L9.25813 25.3602L9.89144 32.662L9.9063 32.8333L10.0716 32.8807L19.3148 35.5328Z" fill="url(#paint0_linear_222_43)" stroke="#C7D2D9" stroke-width="0.5"/>
<path id="css-3_2" class="css-3" d="M1.35236 0.960449H1.07976L1.10329 1.23202L4.38309 39.0955L4.39795 39.2671L4.56363 39.3144L19.2871 43.5109L19.3556 43.5304L19.424 43.5109L34.1862 39.3138L34.352 39.2667L34.3669 39.095L37.6514 1.23205L37.675 0.960449H37.4024H1.35236ZM33.8533 4.46474L31.0698 36.5531L19.3567 39.8839L7.68051 36.555L4.90099 4.46474H33.8533Z" fill="url(#paint1_linear_222_43)" stroke="#C7D2D9" stroke-width="0.5"/>
</g>
<defs>
<linearGradient id="paint0_linear_222_43" x1="30.6975" y1="9.00281" x2="4.70804" y2="31.3306" gradientUnits="userSpaceOnUse">
<stop stop-color="#2781DB"/>
<stop offset="1" stop-color="#093E74"/>
</linearGradient>
<linearGradient id="paint1_linear_222_43" x1="37.4024" y1="1.21045" x2="-4.16257" y2="36.8361" gradientUnits="userSpaceOnUse">
<stop stop-color="#2781DB"/>
<stop offset="1" stop-color="#093E74"/>
</linearGradient>
</defs>
</svg>
