<svg width="37" height="37" viewBox="0 0 37 37" fill="none" xmlns="http://www.w3.org/2000/svg">
<g id="dribble-icon" >
<path class="dribble-icon" id="Vector" d="M24.1286 33.2552L24.3125 33.1781L24.2782 32.9817C23.6189 29.1986 22.5206 25.2925 20.9843 21.2637L20.9229 21.1028H20.7507H20.7038H20.6448L20.592 21.1292L20.5569 21.1467C20.3069 21.2406 19.9739 21.3684 19.5585 21.5299C19.122 21.6997 18.3212 22.0889 17.1666 22.6896C16.0019 23.2955 14.9226 23.9414 13.929 24.6275C12.9274 25.3191 11.8912 26.2256 10.8202 27.3439C9.82248 28.3856 9.0445 29.4724 8.49001 30.6047L8.38292 30.5262L8.07711 30.9216C10.996 33.3011 14.3172 34.4934 18.032 34.4934C20.1283 34.4934 22.1611 34.0803 24.1286 33.2552ZM19.8078 19.0217L20.0187 18.9163L19.9258 18.6996C19.5947 17.9271 19.1779 17.0544 18.676 16.0819L18.5809 15.8976L18.3822 15.957C13.5486 17.4024 8.31514 18.1262 2.68039 18.1262H2.46357L2.4329 18.3409C2.41468 18.4684 2.40695 18.6469 2.40695 18.8684C2.40695 20.8362 2.75622 22.7148 3.45538 24.5024C4.15371 26.2879 5.13826 27.888 6.40852 29.3012L6.64162 29.5605L6.81241 29.2565C7.58311 27.8846 8.53547 26.6004 9.67038 25.4037C10.8098 24.2023 11.9096 23.2423 12.9696 22.5203C14.0424 21.7895 15.0553 21.161 16.0084 20.6341C16.9641 20.1057 17.7281 19.7379 18.3042 19.5255C18.3047 19.5253 18.3053 19.5251 18.3059 19.5249L19.1587 19.2253C19.225 19.2085 19.3254 19.1814 19.4582 19.1444C19.6014 19.1047 19.7225 19.0643 19.8078 19.0217ZM17.2518 14.0711L17.5649 13.9887L17.406 13.7066C15.5266 10.3707 13.6145 7.40808 11.6693 4.81978L11.547 4.65708L11.3629 4.7438C9.1714 5.77604 7.31284 7.25357 5.78923 9.17396C4.26522 11.0949 3.24853 13.2553 2.74051 15.6525L2.67654 15.9543H2.98508C7.72616 15.9543 12.4819 15.3264 17.2518 14.0711ZM33.4662 21.3458L33.5017 21.1266L33.2881 21.0655C29.975 20.1189 26.7431 19.8888 23.595 20.3792L23.2946 20.426L23.3986 20.7117C24.7535 24.4338 25.7495 28.0839 26.3874 31.6623L26.4549 32.0408L26.7735 31.8256C28.5363 30.6345 30.0052 29.1295 31.1794 27.3127C32.3546 25.4943 33.117 23.5046 33.4662 21.3458ZM28.3838 7.48247L28.5146 7.29936L28.3462 7.15008C25.4097 4.5469 21.9679 3.24341 18.032 3.24341C16.8235 3.24341 15.5929 3.39449 14.3407 3.69565L13.9657 3.78583L14.2011 4.09132C16.2389 6.73583 18.1537 9.70883 19.945 13.0111L20.0489 13.2026L20.2529 13.1258C21.3425 12.7152 22.3698 12.2372 23.3347 11.6915C24.2928 11.1496 25.0575 10.6629 25.6247 10.2315C26.1879 9.80311 26.7082 9.35042 27.1853 8.87331C27.6506 8.40804 27.9594 8.0767 28.0909 7.89262L28.3838 7.48247ZM33.3579 18.9495L33.6609 19.0101L33.6569 18.7011C33.6093 15.0199 32.4256 11.7619 30.1081 8.93643L29.9331 8.7231L29.738 8.91819L29.7146 8.94163L29.702 8.9542L29.6913 8.96841C29.5524 9.15369 29.4055 9.34304 29.2508 9.53645C29.1066 9.71665 28.7789 10.0532 28.2538 10.5548C27.7373 11.0482 27.1897 11.5148 26.6112 11.9545C26.0363 12.3914 25.2645 12.8935 24.2926 13.4611C23.3266 14.0252 22.31 14.5239 21.2426 14.9571L20.9978 15.0564L21.1105 15.2954C21.4997 16.1205 21.8421 16.8597 22.1378 17.5132C22.1681 17.5893 22.2174 17.7182 22.2861 17.9015C22.357 18.0905 22.4222 18.2417 22.4816 18.3408L22.5667 18.4825L22.7304 18.4598C23.2854 18.3827 23.8603 18.3287 24.4551 18.2978C25.0527 18.2667 25.6226 18.2512 26.1648 18.2512C26.7081 18.2512 27.2435 18.2629 27.7709 18.2861C28.2993 18.3094 28.7961 18.3405 29.2612 18.3793C29.7278 18.4181 30.1667 18.4609 30.578 18.5074C30.9889 18.554 31.3598 18.6042 31.691 18.6581C32.0267 18.7128 32.3116 18.7596 32.5455 18.7986C32.7784 18.8374 32.9709 18.8721 33.1235 18.9026L33.3579 18.9495ZM35.782 18.8684C35.782 22.0908 34.9885 25.0589 33.402 27.7776C31.8143 30.4981 29.6617 32.6508 26.9411 34.2384C24.2224 35.825 21.2544 36.6184 18.032 36.6184C14.8096 36.6184 11.8415 35.825 9.1228 34.2384C6.40221 32.6508 4.24959 30.4981 2.66194 27.7776C1.07541 25.0589 0.281952 22.0908 0.281952 18.8684C0.281952 15.646 1.07541 12.6779 2.66194 9.95926C4.24959 7.23867 6.40221 5.08605 9.1228 3.49839C11.8415 1.91186 14.8096 1.11841 18.032 1.11841C21.2544 1.11841 24.2224 1.91186 26.9411 3.49839C29.6617 5.08605 31.8143 7.23867 33.402 9.95926C34.9885 12.6779 35.782 15.646 35.782 18.8684Z" fill="url(#paint0_linear_372_24)" stroke="#C7D2D9" stroke-width="0.5"/>
</g>
<defs>
<linearGradient id="paint0_linear_372_24" x1="36.032" y1="0.868408" x2="0.0319519" y2="36.8684" gradientUnits="userSpaceOnUse">
<stop stop-color="#2781DB"/>
<stop offset="1" stop-color="#093E74"/>
</linearGradient>
</defs>
</svg>
