<svg width="1239" height="795" viewBox="0 0 1239 795" fill="none" xmlns="http://www.w3.org/2000/svg">
<g id="Frame-7">
<g id="square-1" class="square-1" filter="url(#filter0_f_1047_20)">
<path d="M202.832 424.082L150.731 294.557L20.6771 346.747L73.2851 476.39L202.832 424.082Z" fill="url(#paint0_linear_1047_20)"/>
<path d="M150.185 294.776L141.988 298.066L142.547 299.458L141.454 299.896L140.895 298.504L132.699 301.793L133.257 303.186L132.164 303.624L131.606 302.232L123.409 305.521L123.968 306.913L122.875 307.352L122.316 305.96L114.12 309.249L114.678 310.641L113.585 311.08L113.027 309.688L104.83 312.977L105.389 314.369L104.296 314.808L103.737 313.416L95.5404 316.705L96.099 318.097L95.0061 318.536L94.4475 317.144L86.2508 320.433L86.8094 321.825L85.7165 322.264L85.1579 320.871L76.9612 324.161L77.5198 325.553L76.4269 325.991L75.8683 324.599L67.6716 327.889L68.2302 329.281L67.1373 329.719L66.5787 328.327L58.382 331.617L58.9406 333.009L57.8477 333.447L57.2891 332.055L49.0924 335.344L49.651 336.737L48.5581 337.175L47.9995 335.783L39.8027 339.072L40.3614 340.464L39.2685 340.903L38.7099 339.511L30.5131 342.8L31.0718 344.192L29.9789 344.631L29.4203 343.239L22.0692 346.189L22.2881 346.728L21.4416 347.072L21.7822 347.92L21.2411 348.137L24.2138 355.463L25.6037 354.899L26.0458 355.988L24.6559 356.552L27.9715 364.723L29.3614 364.159L29.8035 365.248L28.4136 365.812L31.7292 373.983L33.1191 373.419L33.5612 374.509L32.1713 375.073L35.4869 383.243L36.8768 382.679L37.3189 383.769L35.929 384.333L39.2446 392.504L40.6346 391.94L41.0766 393.029L39.6867 393.593L43.0023 401.764L44.3923 401.2L44.8343 402.289L43.4444 402.853L46.76 411.024L48.15 410.46L48.5921 411.549L47.2021 412.113L50.5178 420.284L51.9077 419.72L52.3498 420.81L50.9598 421.374L54.2755 429.544L55.6654 428.98L56.1075 430.07L54.7175 430.634L58.0332 438.805L59.4231 438.241L59.8652 439.33L58.4753 439.894L61.7909 448.065L63.1808 447.501L63.6229 448.59L62.233 449.154L65.5486 457.325L66.9385 456.761L67.3806 457.85L65.9907 458.414L69.3063 466.585L70.6962 466.021L71.1383 467.111L69.7484 467.675L73.064 475.845L73.065 475.845L72.7235 474.999L73.2678 474.779L73.6089 475.624L74.4539 475.281L74.675 475.826L73.829 476.169L73.8294 476.17L81.9941 472.874L81.4325 471.483L82.5211 471.043L83.0827 472.434L91.2474 469.137L90.6858 467.746L91.7744 467.307L92.3361 468.698L100.501 465.401L99.9392 464.01L101.028 463.571L101.589 464.962L109.754 461.665L109.192 460.274L110.281 459.834L110.843 461.225L119.007 457.929L118.446 456.538L119.534 456.098L120.096 457.489L128.261 454.192L127.699 452.801L128.788 452.362L129.349 453.753L137.514 450.456L136.953 449.065L138.041 448.626L138.603 450.016L146.767 446.72L146.206 445.329L147.294 444.889L147.856 446.28L156.021 442.984L155.459 441.593L156.548 441.153L157.109 442.544L165.274 439.247L164.713 437.856L165.801 437.417L166.363 438.808L174.527 435.511L173.966 434.12L175.054 433.681L175.616 435.071L183.781 431.775L183.219 430.384L184.308 429.944L184.869 431.335L193.034 428.039L192.473 426.648L193.561 426.208L194.123 427.599L202.287 424.302L202.287 424.302L201.44 424.642L201.221 424.098L202.068 423.758L201.726 422.911L202.27 422.692L202.612 423.539L202.613 423.538L199.329 415.375L197.938 415.935L197.5 414.846L198.891 414.286L195.608 406.123L194.216 406.683L193.778 405.594L195.17 405.035L191.886 396.871L190.495 397.431L190.057 396.343L191.449 395.783L188.165 387.619L186.773 388.179L186.335 387.091L187.727 386.531L184.443 378.368L183.052 378.927L182.614 377.839L184.006 377.279L180.722 369.116L179.33 369.676L178.893 368.587L180.284 368.027L177.001 359.864L175.609 360.424L175.171 359.335L176.563 358.776L173.279 350.612L171.887 351.172L171.45 350.083L172.841 349.524L169.558 341.36L168.166 341.92L167.728 340.832L169.12 340.272L165.836 332.108L164.445 332.668L164.007 331.58L165.398 331.02L162.115 322.857L160.723 323.416L160.285 322.328L161.677 321.768L158.393 313.605L157.002 314.165L156.564 313.076L157.955 312.516L154.672 304.353L153.28 304.913L152.842 303.824L154.234 303.265L150.95 295.101L150.95 295.101L151.29 295.949L150.744 296.168L150.404 295.321L149.559 295.661L149.34 295.117L150.185 294.777L150.185 294.776Z" stroke="#2781DB" stroke-width="3" stroke-dasharray="1.15 8.6"/>
</g>
<g id="square-2" filter="url(#filter1_f_1047_20)">
<path d="M692.458 542.431L560.135 586.952L604.715 719.807L737.184 674.787L692.458 542.431Z" fill="url(#paint1_linear_1047_20)"/>
<path d="M560.322 587.51L563.132 595.883L564.554 595.406L564.929 596.523L563.507 597L566.316 605.373L567.739 604.896L568.113 606.012L566.691 606.489L569.501 614.863L570.923 614.385L571.297 615.502L569.875 615.979L572.685 624.352L574.107 623.875L574.482 624.992L573.06 625.469L575.869 633.842L577.291 633.365L577.666 634.481L576.244 634.958L579.054 643.332L580.476 642.854L580.85 643.971L579.428 644.448L582.238 652.821L583.66 652.344L584.035 653.461L582.613 653.938L585.422 662.311L586.844 661.834L587.219 662.95L585.797 663.427L588.607 671.801L590.029 671.324L590.403 672.44L588.981 672.917L591.791 681.29L593.213 680.813L593.588 681.93L592.165 682.407L594.975 690.78L596.397 690.303L596.772 691.419L595.35 691.897L598.159 700.27L599.582 699.793L599.956 700.909L598.534 701.386L601.344 709.759L602.766 709.282L603.14 710.399L601.718 710.876L604.238 718.385L604.789 718.198L605.083 719.063L605.95 718.772L606.136 719.325L613.621 716.781L613.138 715.36L614.251 714.982L614.734 716.402L623.083 713.565L622.6 712.145L623.713 711.766L624.196 713.187L632.545 710.349L632.062 708.929L633.175 708.551L633.658 709.971L642.007 707.133L641.524 705.713L642.637 705.335L643.12 706.755L651.469 703.918L650.986 702.497L652.099 702.119L652.582 703.539L660.931 700.702L660.448 699.282L661.562 698.903L662.044 700.324L670.393 697.486L669.91 696.066L671.024 695.688L671.506 697.108L679.855 694.27L679.372 692.85L680.486 692.472L680.968 693.892L689.317 691.055L688.834 689.634L689.948 689.256L690.43 690.676L698.779 687.839L698.297 686.419L699.41 686.04L699.892 687.46L708.241 684.623L707.759 683.203L708.872 682.824L709.354 684.245L717.703 681.407L717.221 679.987L718.334 679.609L718.816 681.029L727.165 678.191L726.683 676.771L727.796 676.393L728.279 677.813L736.627 674.976L736.627 674.975L735.763 675.267L735.575 674.711L736.438 674.419L736.145 673.555L736.701 673.366L736.995 674.231L736.996 674.23L734.177 665.889L732.756 666.369L732.38 665.257L733.801 664.776L730.982 656.435L729.561 656.915L729.186 655.803L730.607 655.322L727.788 646.981L726.367 647.461L725.991 646.349L727.412 645.869L724.593 637.527L723.172 638.007L722.796 636.895L724.217 636.415L721.398 628.073L719.977 628.553L719.601 627.441L721.022 626.961L718.203 618.619L716.782 619.099L716.407 617.987L717.828 617.507L715.009 609.165L713.588 609.645L713.212 608.533L714.633 608.053L711.814 599.711L710.393 600.191L710.017 599.079L711.438 598.599L708.619 590.257L707.198 590.737L706.822 589.625L708.243 589.145L705.424 580.803L704.003 581.283L703.628 580.171L705.049 579.691L702.23 571.349L700.809 571.829L700.433 570.717L701.854 570.237L699.035 561.895L697.614 562.375L697.238 561.263L698.659 560.783L695.84 552.441L694.419 552.921L694.043 551.809L695.464 551.329L692.645 542.987L692.645 542.987L692.936 543.853L692.38 544.04L692.089 543.175L691.224 543.467L691.036 542.911L691.902 542.619L691.902 542.618L683.562 545.424L684.04 546.846L682.928 547.22L682.45 545.798L674.11 548.604L674.589 550.026L673.477 550.4L672.998 548.978L664.659 551.784L665.137 553.206L664.025 553.58L663.547 552.158L655.207 554.964L655.685 556.386L654.574 556.76L654.095 555.338L645.756 558.144L646.234 559.566L645.122 559.94L644.644 558.518L636.304 561.324L636.782 562.746L635.67 563.12L635.192 561.698L626.852 564.504L627.331 565.926L626.219 566.3L625.74 564.878L617.401 567.684L617.879 569.106L616.767 569.48L616.289 568.059L607.949 570.864L608.427 572.286L607.316 572.66L606.837 571.239L598.498 574.045L598.976 575.466L597.864 575.84L597.386 574.419L589.046 577.225L589.524 578.646L588.412 579.02L587.934 577.599L579.594 580.405L580.073 581.826L578.961 582.2L578.482 580.779L570.143 583.585L570.621 585.006L569.509 585.38L569.031 583.959L560.691 586.765L560.691 586.765L561.557 586.475L561.745 587.033L560.879 587.323L561.17 588.186L560.614 588.373L560.323 587.51L560.322 587.51Z" stroke="#2781DB" stroke-width="3" stroke-dasharray="1.15 8.6"/>
</g>
<g id="square-3" filter="url(#filter2_f_1047_20)">
<path d="M1014.12 426.666L1144.92 475.492L1194.04 344.246L1062.81 295.716L1014.12 426.666Z" fill="url(#paint2_linear_1047_20)"/>
<path d="M1145.13 474.941L1148.22 466.669L1146.82 466.143L1147.23 465.04L1148.63 465.566L1151.73 457.294L1150.32 456.768L1150.74 455.665L1152.14 456.191L1155.24 447.919L1153.83 447.393L1154.25 446.291L1155.65 446.816L1158.75 438.544L1157.34 438.019L1157.75 436.916L1159.16 437.442L1162.25 429.17L1160.85 428.644L1161.26 427.541L1162.67 428.067L1165.76 419.795L1164.36 419.269L1164.77 418.166L1166.18 418.692L1169.27 410.42L1167.87 409.895L1168.28 408.792L1169.68 409.317L1172.78 401.045L1171.37 400.52L1171.79 399.417L1173.19 399.943L1176.29 391.671L1174.88 391.145L1175.3 390.042L1176.7 390.568L1179.8 382.296L1178.39 381.77L1178.8 380.667L1180.21 381.193L1183.3 372.921L1181.9 372.396L1182.31 371.293L1183.72 371.818L1186.81 363.547L1185.41 363.021L1185.82 361.918L1187.23 362.444L1190.32 354.172L1188.92 353.646L1189.33 352.543L1190.73 353.069L1193.51 345.65L1192.96 345.449L1193.28 344.592L1192.42 344.271L1192.63 343.725L1185.21 340.983L1184.69 342.39L1183.59 341.982L1184.11 340.575L1175.84 337.517L1175.32 338.924L1174.22 338.516L1174.74 337.109L1166.47 334.05L1165.95 335.457L1164.84 335.049L1165.36 333.642L1157.09 330.584L1156.57 331.991L1155.47 331.583L1155.99 330.176L1147.72 327.117L1147.2 328.524L1146.1 328.116L1146.62 326.71L1138.35 323.651L1137.83 325.058L1136.72 324.65L1137.25 323.243L1128.97 320.185L1128.45 321.591L1127.35 321.184L1127.87 319.777L1119.6 316.718L1119.08 318.125L1117.98 317.717L1118.5 316.31L1110.23 313.252L1109.71 314.659L1108.61 314.251L1109.13 312.844L1100.86 309.785L1100.34 311.192L1099.23 310.784L1099.75 309.377L1091.48 306.319L1090.96 307.726L1089.86 307.318L1090.38 305.911L1082.11 302.852L1081.59 304.259L1080.49 303.851L1081.01 302.445L1072.74 299.386L1072.22 300.793L1071.11 300.385L1071.63 298.978L1063.36 295.92L1063.36 295.921L1064.22 296.238L1064.01 296.789L1063.16 296.471L1062.84 297.326L1062.29 297.123L1062.61 296.266L1062.61 296.266L1059.54 304.519L1060.94 305.042L1060.54 306.142L1059.13 305.619L1056.06 313.873L1057.47 314.395L1057.06 315.496L1055.65 314.973L1052.58 323.226L1053.99 323.749L1053.58 324.849L1052.17 324.327L1049.11 332.58L1050.51 333.103L1050.1 334.203L1048.7 333.68L1045.63 341.933L1047.03 342.456L1046.62 343.557L1045.22 343.034L1042.15 351.287L1043.56 351.81L1043.15 352.91L1041.74 352.387L1038.67 360.641L1040.08 361.163L1039.67 362.264L1038.26 361.741L1035.19 369.994L1036.6 370.517L1036.19 371.617L1034.79 371.095L1031.72 379.348L1033.12 379.871L1032.71 380.971L1031.31 380.448L1028.24 388.701L1029.65 389.224L1029.24 390.325L1027.83 389.802L1024.76 398.055L1026.17 398.578L1025.76 399.678L1024.35 399.155L1021.28 407.409L1022.69 407.931L1022.28 409.032L1020.88 408.509L1017.81 416.762L1019.21 417.285L1018.8 418.385L1017.4 417.863L1014.33 426.116L1014.33 426.116L1014.65 425.261L1015.2 425.466L1014.88 426.32L1015.74 426.639L1015.53 427.189L1014.67 426.87L1014.67 426.871L1022.92 429.948L1023.44 428.543L1024.54 428.953L1024.02 430.359L1032.26 433.436L1032.78 432.031L1033.88 432.441L1033.36 433.846L1041.6 436.924L1042.13 435.518L1043.23 435.929L1042.7 437.334L1050.94 440.411L1051.47 439.006L1052.57 439.416L1052.04 440.821L1060.29 443.899L1060.81 442.493L1061.91 442.904L1061.39 444.309L1069.63 447.386L1070.15 445.981L1071.25 446.391L1070.73 447.797L1078.97 450.874L1079.5 449.469L1080.6 449.879L1080.07 451.284L1088.31 454.361L1088.84 452.956L1089.94 453.366L1089.41 454.772L1097.66 457.849L1098.18 456.444L1099.28 456.854L1098.76 458.259L1107 461.337L1107.52 459.931L1108.62 460.342L1108.1 461.747L1116.34 464.824L1116.87 463.419L1117.97 463.829L1117.44 465.234L1125.68 468.312L1126.21 466.906L1127.31 467.317L1126.78 468.722L1135.03 471.799L1135.55 470.394L1136.65 470.804L1136.13 472.21L1144.37 475.287L1144.37 475.286L1143.51 474.966L1143.72 474.415L1144.58 474.735L1144.89 473.882L1145.44 474.087L1145.13 474.94L1145.13 474.941Z" stroke="#2781DB" stroke-width="3" stroke-dasharray="1.15 8.6"/>
</g>
<g id="square-4" filter="url(#filter3_f_1047_20)">
<path d="M589.151 252.516L722.286 210.488L680.209 76.819L546.918 119.344L589.151 252.516Z" fill="url(#paint3_linear_1047_20)"/>
<path d="M722.11 209.927L719.458 201.502L718.027 201.952L717.673 200.829L719.104 200.379L716.452 191.954L715.021 192.405L714.668 191.281L716.099 190.831L713.447 182.406L712.016 182.857L711.662 181.734L713.093 181.283L710.441 172.859L709.01 173.309L708.657 172.186L710.087 171.735L707.435 163.311L706.005 163.761L705.651 162.638L707.082 162.188L704.43 153.763L702.999 154.213L702.646 153.09L704.076 152.64L701.424 144.215L699.994 144.666L699.64 143.542L701.071 143.092L698.419 134.667L696.988 135.118L696.634 133.995L698.065 133.544L695.413 125.12L693.983 125.57L693.629 124.447L695.06 123.996L692.408 115.572L690.977 116.022L690.623 114.899L692.054 114.449L689.402 106.024L687.971 106.474L687.618 105.351L689.049 104.901L686.397 96.4762L684.966 96.9266L684.612 95.8033L686.043 95.3529L683.391 86.9284L681.96 87.3788L681.607 86.2555L683.038 85.8051L680.659 78.2498L680.105 78.4267L679.827 77.5564L678.955 77.831L678.78 77.2749L671.248 79.6778L671.704 81.1069L670.584 81.4642L670.128 80.0352L661.727 82.7154L662.183 84.1444L661.063 84.5018L660.607 83.0727L652.207 85.7529L652.663 87.1819L651.542 87.5393L651.087 86.1102L642.686 88.7904L643.142 90.2194L642.022 90.5768L641.566 89.1478L633.165 91.8279L633.621 93.257L632.501 93.6143L632.045 92.1853L623.644 94.8655L624.1 96.2945L622.98 96.6518L622.524 95.2228L614.124 97.903L614.579 99.332L613.459 99.6894L613.003 98.2603L604.603 100.941L605.059 102.37L603.939 102.727L603.483 101.298L595.082 103.978L595.538 105.407L594.418 105.764L593.962 104.335L585.561 107.016L586.017 108.445L584.897 108.802L584.441 107.373L576.04 110.053L576.496 111.482L575.376 111.839L574.92 110.41L566.52 113.091L566.976 114.52L565.856 114.877L565.4 113.448L556.999 116.128L557.455 117.557L556.335 117.915L555.879 116.485L547.478 119.166L547.478 119.167L548.348 118.891L548.525 119.45L547.657 119.726L547.934 120.595L547.374 120.773L547.097 119.904L547.096 119.904L549.757 128.297L551.187 127.844L551.542 128.963L550.112 129.416L552.774 137.809L554.204 137.356L554.559 138.475L553.129 138.928L555.791 147.322L557.22 146.868L557.575 147.987L556.146 148.441L558.807 156.834L560.237 156.38L560.592 157.5L559.162 157.953L561.824 166.346L563.254 165.893L563.609 167.012L562.179 167.465L564.841 175.859L566.27 175.405L566.625 176.524L565.196 176.978L567.857 185.371L569.287 184.917L569.642 186.036L568.212 186.49L570.874 194.883L572.304 194.43L572.659 195.549L571.229 196.002L573.891 204.395L575.32 203.942L575.675 205.061L574.245 205.514L576.907 213.908L578.337 213.454L578.692 214.573L577.262 215.027L579.924 223.42L581.354 222.967L581.709 224.086L580.279 224.539L582.941 232.932L584.37 232.479L584.725 233.598L583.295 234.051L585.957 242.445L587.387 241.991L587.742 243.11L586.312 243.564L588.974 251.957L588.975 251.957L588.7 251.086L589.259 250.909L589.534 251.779L590.404 251.503L590.581 252.063L589.71 252.339L589.711 252.34L598.102 249.691L597.65 248.261L598.769 247.907L599.22 249.338L607.611 246.689L607.16 245.259L608.278 244.905L608.73 246.336L617.121 243.687L616.669 242.257L617.788 241.903L618.24 243.334L626.631 240.685L626.179 239.254L627.298 238.901L627.749 240.332L636.14 237.683L635.689 236.252L636.807 235.899L637.259 237.33L645.65 234.681L645.198 233.25L646.317 232.897L646.769 234.328L655.159 231.679L654.708 230.248L655.827 229.895L656.278 231.326L664.669 228.677L664.218 227.246L665.336 226.893L665.788 228.324L674.179 225.675L673.727 224.244L674.846 223.891L675.298 225.322L683.688 222.673L683.237 221.242L684.356 220.889L684.807 222.32L693.198 219.671L692.746 218.24L693.865 217.887L694.317 219.318L702.708 216.669L702.256 215.238L703.375 214.885L703.826 216.316L712.217 213.667L711.766 212.236L712.885 211.883L713.336 213.314L721.727 210.665L721.727 210.664L720.856 210.939L720.679 210.377L721.55 210.103L721.275 209.234L721.835 209.058L722.109 209.927L722.11 209.927Z" stroke="#2781DB" stroke-width="3" stroke-dasharray="1.15 8.6"/>
</g>
</g>
<defs>
<filter id="filter0_f_1047_20" x="0.677002" y="274.557" width="222.155" height="221.833" filterUnits="userSpaceOnUse" color-interpolation-filters="sRGB">
<feFlood flood-opacity="0" result="BackgroundImageFix"/>
<feBlend mode="normal" in="SourceGraphic" in2="BackgroundImageFix" result="shape"/>
<feGaussianBlur stdDeviation="10" result="effect1_foregroundBlur_1047_20"/>
</filter>
<filter id="filter1_f_1047_20" x="540.135" y="522.431" width="217.049" height="217.376" filterUnits="userSpaceOnUse" color-interpolation-filters="sRGB">
<feFlood flood-opacity="0" result="BackgroundImageFix"/>
<feBlend mode="normal" in="SourceGraphic" in2="BackgroundImageFix" result="shape"/>
<feGaussianBlur stdDeviation="10" result="effect1_foregroundBlur_1047_20"/>
</filter>
<filter id="filter2_f_1047_20" x="994.125" y="275.716" width="219.911" height="219.776" filterUnits="userSpaceOnUse" color-interpolation-filters="sRGB">
<feFlood flood-opacity="0" result="BackgroundImageFix"/>
<feBlend mode="normal" in="SourceGraphic" in2="BackgroundImageFix" result="shape"/>
<feGaussianBlur stdDeviation="10" result="effect1_foregroundBlur_1047_20"/>
</filter>
<filter id="filter3_f_1047_20" x="526.918" y="56.8191" width="215.368" height="215.697" filterUnits="userSpaceOnUse" color-interpolation-filters="sRGB">
<feFlood flood-opacity="0" result="BackgroundImageFix"/>
<feBlend mode="normal" in="SourceGraphic" in2="BackgroundImageFix" result="shape"/>
<feGaussianBlur stdDeviation="10" result="effect1_foregroundBlur_1047_20"/>
</filter>
<linearGradient id="paint0_linear_1047_20" x1="161.763" y1="399.329" x2="65.5996" y2="374.058" gradientUnits="userSpaceOnUse">
<stop stop-color="#2781DB"/>
<stop offset="1" stop-color="#2781DB" stop-opacity="0"/>
</linearGradient>
<linearGradient id="paint1_linear_1047_20" x1="665.37" y1="581.999" x2="634.579" y2="676.54" gradientUnits="userSpaceOnUse">
<stop stop-color="#2781DB"/>
<stop offset="1" stop-color="#2781DB" stop-opacity="0"/>
</linearGradient>
<linearGradient id="paint2_linear_1047_20" x1="1060.09" y1="413.016" x2="1143.58" y2="359.018" gradientUnits="userSpaceOnUse">
<stop stop-color="#2781DB"/>
<stop offset="1" stop-color="#2781DB" stop-opacity="0"/>
</linearGradient>
<linearGradient id="paint3_linear_1047_20" x1="616.977" y1="213.464" x2="649.538" y2="119.518" gradientUnits="userSpaceOnUse">
<stop stop-color="#2781DB"/>
<stop offset="1" stop-color="#2781DB" stop-opacity="0"/>
</linearGradient>
</defs>
</svg>
