<svg width="38" height="38" viewBox="0 0 38 38" fill="none" xmlns="http://www.w3.org/2000/svg">
<path id="github-icon" class="github-icon" d="M13.2619 37.0682L13.2758 37.073L13.2903 37.0761C13.4219 37.1043 13.536 37.1138 13.648 37.1138C14.0492 37.1138 14.3527 36.9631 14.5516 36.7262C14.7445 36.4966 14.8221 36.2068 14.8221 35.9477C14.8221 35.751 14.8189 35.4112 14.8147 34.9589C14.8094 34.3955 14.8025 33.6576 14.798 32.8044L14.7964 32.4932L14.4929 32.5619C13.8345 32.7108 13.2503 32.7727 12.732 32.7727C11.0743 32.7727 10.0762 32.132 9.49027 31.5059C9.1947 31.1901 9.0008 30.8742 8.8812 30.6383C8.82149 30.5205 8.78059 30.4232 8.75501 30.3567C8.74223 30.3234 8.7333 30.2979 8.72777 30.2815L8.72199 30.2637L8.721 30.2605L8.72093 30.2603L8.72092 30.2602L8.72087 30.2601L8.72082 30.2599L8.71809 30.2506L8.71437 30.2409C8.29241 29.1447 7.77377 28.4409 7.35243 28.0078C7.14206 27.7916 6.95678 27.6438 6.82122 27.5486C6.75346 27.501 6.69816 27.4666 6.65842 27.4434C6.63855 27.4318 6.62256 27.4231 6.61085 27.4168L6.61009 27.4164C6.23322 27.15 6.08907 26.9769 6.04701 26.8851C6.04255 26.8754 6.03989 26.868 6.03831 26.8626C6.04049 26.8609 6.04321 26.8588 6.04657 26.8565C6.10034 26.819 6.20764 26.7866 6.33996 26.7673C6.45769 26.7501 6.56108 26.7479 6.58947 26.7477C7.4096 26.8239 8.04365 27.2593 8.48103 27.692C8.69974 27.9083 8.86536 28.1202 8.97598 28.2777C9.03118 28.3563 9.07237 28.4208 9.09935 28.465C9.11283 28.487 9.12273 28.5039 9.12904 28.5149L9.13578 28.5268L9.13709 28.5292L9.13704 28.5292L9.13989 28.5342C10.0872 30.1921 11.3785 30.6772 12.5391 30.6772C13.4328 30.6772 14.2336 30.389 14.7015 30.1718L14.8257 30.1141L14.844 29.9785C14.9982 28.8372 15.4418 28.0832 15.9052 27.6633L16.3132 27.2936L15.7663 27.2297C13.7848 26.9985 11.7972 26.4938 10.3048 25.2056C8.82342 23.9267 7.79088 21.8405 7.79088 18.3575C7.79088 16.4034 8.46644 14.815 9.5755 13.5741L9.67843 13.4589L9.62149 13.3154C9.45426 12.8937 8.86991 11.1378 9.74984 8.74262C9.80291 8.73668 9.87523 8.73163 9.96767 8.73163C10.5531 8.73163 11.9746 8.95561 14.3732 10.6235L14.4704 10.6911L14.5844 10.6587C15.9984 10.2558 17.51 10.0575 19.0239 10.0495C20.5299 10.0575 22.0495 10.2558 23.4634 10.6587L23.5774 10.6911L23.6747 10.6235C26.0732 8.95561 27.4947 8.73163 28.0802 8.73163C28.1726 8.73163 28.2449 8.73668 28.298 8.74261C29.1779 11.1378 28.5936 12.8937 28.4263 13.3154L28.3696 13.4585L28.4718 13.5735C29.5816 14.823 30.257 16.4117 30.257 18.3575C30.257 21.8486 29.2224 23.9324 27.7376 25.206C26.2415 26.4894 24.2481 26.9863 22.258 27.2136L21.7015 27.2772L22.1205 27.649C22.6982 28.1617 23.2578 29.2117 23.2578 30.8772C23.2578 32.1099 23.2518 33.2242 23.2458 34.1058C23.2438 34.4035 23.2417 34.6749 23.2399 34.9155C23.2364 35.3866 23.2337 35.7394 23.2337 35.9397C23.2337 36.2002 23.3079 36.4918 23.4987 36.7234C23.696 36.9628 23.9983 37.1138 24.3998 37.1138C24.5091 37.1138 24.6398 37.1047 24.7736 37.0761L24.788 37.073L24.802 37.0682C32.0632 34.5908 37.282 27.5768 37.282 19.3218C37.282 9.00044 29.1161 0.61377 19.032 0.61377C8.94778 0.61377 0.781952 9.00044 0.781952 19.3218C0.781952 27.585 6.00894 34.5908 13.2619 37.0682ZM6.03611 26.8515C6.03614 26.8515 6.03618 26.852 6.03614 26.8529C6.03604 26.8519 6.03607 26.8514 6.03611 26.8515ZM6.0132 18.3495C6.0132 21.477 6.795 23.6849 7.94277 25.2416C7.56585 25.0996 7.15597 25.0022 6.71494 24.9707L6.70605 24.97H6.69713H6.59267C5.47753 24.97 4.60705 25.4363 4.3292 26.3262C4.27956 26.4827 4.25306 26.6336 4.24546 26.7783C3.14194 24.4756 2.56767 21.9426 2.56767 19.3218C2.56767 17.0317 3.0034 14.8142 3.8666 12.7235L3.86669 12.7232C4.6983 10.7036 5.88588 8.89862 7.40608 7.34675L7.40653 7.34628C8.91892 5.79431 10.6839 4.5756 12.6385 3.72888L12.6385 3.72885C14.6646 2.85038 16.8164 2.39948 19.032 2.39948C21.2481 2.39948 23.3999 2.84259 25.4254 3.72082L25.4258 3.72099C27.3878 4.56753 29.1448 5.78605 30.6574 7.33825C32.17 8.89048 33.3657 10.7038 34.1973 12.7154C35.0605 14.8061 35.4962 17.0237 35.4962 19.3138C35.4962 22.9431 34.403 26.4037 32.3205 29.3175L32.3202 29.3179C31.3226 30.7194 30.1271 31.9466 28.7651 32.9759C27.6144 33.8426 26.3696 34.5419 25.0677 35.0736V34.9191V30.8691C25.0677 29.9752 24.9356 29.2218 24.7407 28.599C26.2106 28.2393 27.9796 27.5392 29.4124 26.0674C30.9398 24.4984 32.0587 22.0796 32.0587 18.3414C32.0587 16.3549 31.496 14.5738 30.3749 13.0535C30.6186 11.9641 30.7723 10.1392 29.9289 7.95841C29.9287 7.95811 29.9286 7.9578 29.9285 7.9575L29.7121 7.3883L29.6699 7.27748L29.5574 7.23999L28.9789 7.04713C28.8315 6.99801 28.5395 6.92984 28.0962 6.92984C27.1238 6.92984 25.5469 7.27223 23.2693 8.74352C21.9155 8.41792 20.5008 8.2477 19.048 8.2477H19.0239C17.5716 8.2477 16.1494 8.41782 14.8025 8.74342C12.5249 7.27221 10.9482 6.92984 9.9757 6.92984C9.52759 6.92984 9.23567 7.00764 9.09307 7.05517L8.5145 7.24803L8.40203 7.28552L8.35988 7.39634L8.14332 7.96582C8.14325 7.966 8.14318 7.96619 8.14311 7.96637C7.29989 10.1544 7.45321 11.9792 7.69695 13.0621C6.57613 14.5897 6.0132 16.3704 6.0132 18.3495ZM5.75142 29.3256C5.59837 29.1114 5.45062 28.8943 5.30821 28.6744C5.4103 28.7549 5.50119 28.82 5.56973 28.8685L5.58901 28.8917L5.62949 28.9403L5.68821 28.9637L5.78623 29.003C5.91835 29.0913 6.52486 29.5517 7.02402 30.8325C7.03515 30.8668 7.04707 30.9017 7.0598 30.9373C6.59273 30.4285 6.15591 29.8902 5.75142 29.3256ZM12.732 34.5504C12.8284 34.5504 12.9246 34.5481 13.0208 34.5447C13.0216 34.6764 13.0235 34.8045 13.0284 34.9243C13.0284 34.9748 13.0284 35.0249 13.0285 35.0742C12.5847 34.8972 12.1503 34.7004 11.7252 34.4841C12.0433 34.5273 12.3787 34.5504 12.732 34.5504ZM10.6741 27.6126C11.5782 28.1097 12.5011 28.4201 13.3239 28.6228C13.3066 28.6791 13.29 28.7361 13.2741 28.7938C13.0481 28.8509 12.7944 28.8914 12.5391 28.8914C12.1454 28.8914 11.8127 28.7949 11.5189 28.6005C11.223 28.4047 10.9527 28.1003 10.7012 27.6632C10.6925 27.6465 10.6834 27.6296 10.6741 27.6126Z" fill="url(#paint0_linear_240_28)" stroke="#C7D2D9" stroke-width="0.5"/>
<defs>
<linearGradient id="paint0_linear_240_28" x1="37.032" y1="0.86377" x2="1.03195" y2="36.8638" gradientUnits="userSpaceOnUse">
<stop stop-color="#2781DB"/>
<stop offset="1" stop-color="#093E74"/>
</linearGradient>
</defs>
</svg>
