<svg width="38" height="44" viewBox="0 0 38 44" fill="none" xmlns="http://www.w3.org/2000/svg">
<g id="html-icon">
<path id="html-5" class="html-5" d="M1.00708 0.960449H0.734489L0.758013 1.23202L4.03785 39.0968L4.05272 39.2684L4.21839 39.3157L18.9421 43.5123L19.0105 43.5318L19.079 43.5124L33.8414 39.3151L34.0072 39.268L34.022 39.0963L37.3066 1.23205L37.3301 0.960449H37.0575H1.00708ZM33.5084 4.46484L30.7249 36.5544L19.0116 39.8852L7.33531 36.5562L4.55575 4.46484H33.5084Z" fill="url(#paint0_linear_222_38)" stroke="#C7D2D9" stroke-width="0.5"/>
<path id="html-5_2" class="html-5" d="M8.64315 23.0131L8.66237 23.2422H8.89228H24.2971L23.8126 28.8049L19.0311 30.125L14.2177 28.8116L13.9114 25.3175L13.8914 25.0894H13.6624H9.13252H8.8597L8.88347 25.3611L9.51839 32.622L9.53343 32.794L9.69962 32.8408L18.9636 35.4518L19.0317 35.471L19.0998 35.4517L28.3466 32.8245L28.512 32.7775L28.5273 32.6062L29.7952 18.414L29.8195 18.1417H29.5462H13.2543L12.9187 13.8535H29.9217H30.1514L30.1708 13.6246L30.5659 8.95987L30.5888 8.68892L30.3169 8.68878L7.71232 8.67676L7.44032 8.67661L7.46306 8.94766L8.64315 23.0131Z" fill="url(#paint1_linear_222_38)" stroke="#C7D2D9" stroke-width="0.5"/>
</g>
<defs>
<linearGradient id="paint0_linear_222_38" x1="37.0575" y1="1.21045" x2="-4.5087" y2="36.8364" gradientUnits="userSpaceOnUse">
<stop stop-color="#2781DB"/>
<stop offset="1" stop-color="#093E74"/>
</linearGradient>
<linearGradient id="paint1_linear_222_38" x1="30.3167" y1="8.92676" x2="4.32844" y2="31.2766" gradientUnits="userSpaceOnUse">
<stop stop-color="#2781DB"/>
<stop offset="1" stop-color="#093E74"/>
</linearGradient>
</defs>
</svg>
