<svg width="56" height="44" viewBox="0 0 56 44" fill="none" xmlns="http://www.w3.org/2000/svg">
<g id="js-icon">
<path id="js-j" class="js-j" d="M22.4929 2.16797V1.91797H22.2429H12.6838H12.4338V2.16797V27.559C12.4338 30.683 11.8958 32.6191 10.9448 33.7746C10.005 34.9165 8.61834 35.346 6.77962 35.346C5.05007 35.346 3.49516 35.0493 2.29047 34.6351L2.00194 34.5359L1.9614 34.8383L0.965107 42.2713L0.937907 42.4742L1.13149 42.5409C2.92104 43.1571 5.64557 43.5219 7.77365 43.5219C12.113 43.5219 15.8049 42.5021 18.4106 39.9774C21.0176 37.4514 22.4929 33.4621 22.4929 27.6213V2.16797ZM20.0811 4.32979V27.6211C20.0811 32.5577 18.9345 36.1113 16.7323 38.2453C14.7578 40.1585 11.8445 41.1101 7.77365 41.1101C6.43631 41.1101 4.90913 40.9524 3.60932 40.6972L4.03257 37.5405C4.84002 37.6706 5.76105 37.7575 6.77938 37.7575C9.45112 37.7575 11.4401 36.9675 12.8067 35.3071C14.2133 33.5987 14.8456 31.1168 14.8456 27.559V4.32979H20.0811Z" fill="url(#paint0_linear_222_49)" stroke="#C7D2D9" stroke-width="0.5"/>
<path id="js-s" class="js-s" d="M50.5587 4.43064L49.5616 7.76725C47.9342 7.13648 45.7277 6.54322 42.9737 6.54322C40.7121 6.54322 38.7594 7.10015 37.3438 8.17827L37.3438 8.17828C35.8836 9.29049 35.0713 10.8735 35.0713 12.6325C35.0713 14.8212 36.1145 16.3277 37.7205 17.5057C39.3057 18.6684 41.4614 19.5274 43.7309 20.4318L43.7532 20.4407L43.7539 20.4409L43.766 20.4458L43.766 20.4458L43.7705 20.4475L43.7829 20.4523C46.9864 21.6753 49.2081 23.0851 50.6074 24.7495C51.9511 26.3481 52.582 28.2113 52.582 30.64C52.582 33.5823 51.4935 36.0849 49.4416 37.8935C47.0716 39.9828 43.4275 41.1077 38.8717 41.1077C35.6554 41.1077 32.5956 40.3925 30.4881 39.538L31.2776 36.2519C33.3742 37.0873 36.2042 37.8796 39.3994 37.8796C41.857 37.8796 43.8684 37.3372 45.3539 36.2409C46.9505 35.0628 47.8282 33.2846 47.8282 31.246C47.8282 29.3336 47.0701 27.763 45.5329 26.4615C44.2849 25.4045 42.5017 24.5029 39.7848 23.5333C36.5955 22.3572 34.1838 20.9348 32.5972 19.3163C30.9399 17.6257 30.1402 15.7012 30.1402 13.4181C30.1402 10.607 31.2817 8.17383 33.4472 6.37032L33.4472 6.37032C35.7901 4.419 39.1174 3.37373 43.0892 3.37373C45.8925 3.37373 48.3533 3.72215 50.5587 4.43064ZM38.9614 25.8005L38.9639 25.8014C41.3305 26.6454 42.9491 27.4341 43.9746 28.3024C44.9849 29.1579 45.4166 30.0872 45.4166 31.2463C45.4166 32.5313 44.9086 33.5726 43.922 34.3007C42.9258 35.036 41.4184 35.4682 39.3996 35.4682C35.6454 35.4682 32.2301 34.2134 29.9125 32.9586L29.8098 33.1483L29.5504 33.1175L27.7353 40.6716L27.6914 40.8541L27.8544 40.9471C30.1227 42.2417 34.3245 43.5197 38.8717 43.5197C44.3332 43.5196 48.3659 42.0573 51.0366 39.7029C53.7096 37.3466 54.9938 34.1181 54.9938 30.64C54.9938 27.6886 54.1725 25.2426 52.4535 23.1976C50.7398 21.1591 48.1498 19.538 44.6449 18.1998C42.0624 17.1707 40.2637 16.3812 39.1082 15.5351C38.5346 15.115 38.1312 14.6889 37.87 14.2238C37.61 13.7609 37.483 13.2451 37.483 12.6325C37.483 11.6868 37.9121 10.777 38.805 10.097C39.7017 9.414 41.0786 8.95504 42.9735 8.95504C46.7187 8.95504 49.2923 10.2126 50.8055 10.9933L51.0734 11.1315L51.1597 10.8427L53.4449 3.19543L53.5081 2.98375L53.3059 2.89494C50.8839 1.83157 47.6309 0.961914 43.0892 0.961914C38.4162 0.961914 34.5782 2.28958 31.9037 4.51706C29.2264 6.74685 27.7283 9.86844 27.7283 13.4181C27.7283 19.5665 32.3752 23.3737 38.9614 25.8005Z" fill="url(#paint1_linear_222_49)" stroke="#C7D2D9" stroke-width="0.5"/>
</g>
<defs>
<linearGradient id="paint0_linear_222_49" x1="22.2429" y1="2.16797" x2="-11.0914" y2="19.2228" gradientUnits="userSpaceOnUse">
<stop stop-color="#2781DB"/>
<stop offset="1" stop-color="#093E74"/>
</linearGradient>
<linearGradient id="paint1_linear_222_49" x1="54.7438" y1="1.21191" x2="16.6435" y2="25.4588" gradientUnits="userSpaceOnUse">
<stop stop-color="#2781DB"/>
<stop offset="1" stop-color="#093E74"/>
</linearGradient>
</defs>
</svg>
