<svg width="38" height="38" viewBox="0 0 38 38" fill="none" xmlns="http://www.w3.org/2000/svg">
<g id="linkedin-icon" >
<path class="linkedin-icon" id="Vector" d="M12.1724 31.1215H12.4224V30.8715V14.8267V14.5767H12.1724H7.02423H6.77423V14.8267V30.8715V31.1215H7.02423H12.1724ZM12.8257 9.63164H12.8257L12.8256 9.62715C12.8106 8.79005 12.5241 8.03553 12.0002 7.48831C11.4744 6.93917 10.725 6.6153 9.8187 6.6153C8.91312 6.6153 8.15062 6.93858 7.61451 7.48634C7.07934 8.03314 6.78361 8.78945 6.78361 9.63164C6.78361 11.295 7.95224 12.648 9.75306 12.648H9.79057C10.7111 12.648 11.4741 12.317 12.0066 11.7651C12.5376 11.2147 12.8257 10.4588 12.8257 9.63164Z" fill="url(#paint0_linear_368_10)" stroke="#C7D2D9" stroke-width="0.5"/>
<path class="linkedin-icon" id="Vector_2" d="M21.8819 15.16C21.3883 15.5113 21.0046 15.9199 20.6932 16.31V14.8362V14.5862H20.4432H15.2856H15.0356V14.8362V30.8716V31.1216H15.2856H20.4432H20.6932V30.8716V21.7379C20.6932 21.271 20.7324 20.8477 20.8512 20.5705L20.8513 20.5705L20.8535 20.5648C21.2055 19.6848 21.9776 18.8184 23.2658 18.8184C24.1243 18.8184 24.697 19.1426 25.0668 19.6885C25.4474 20.2504 25.6321 21.0761 25.6321 22.1037V30.8716V31.1216H25.8821H31.0397H31.2897V30.8716V21.5035C31.2897 19.0556 30.6404 17.2276 29.5244 16.0094C28.4064 14.789 26.8479 14.2111 25.0944 14.2111C23.6784 14.2111 22.6524 14.6115 21.8819 15.16Z" fill="url(#paint1_linear_368_10)" stroke="#C7D2D9" stroke-width="0.5"/>
<path class="linkedin-icon" id="Vector_3" d="M34.153 0.61377H4.10775C2.35861 0.61377 0.781952 1.87907 0.781952 3.66762V33.7785C0.781952 35.5468 2.32716 37.1137 4.10775 37.1137H34.1437C35.9545 37.1137 37.2819 35.5154 37.2819 33.7785L37.2819 3.66907C37.2819 3.66884 37.2819 3.66862 37.2819 3.66839C37.2918 1.89835 35.9228 0.61377 34.153 0.61377ZM33.7905 4.11455V33.6223H4.32343C4.30632 33.6223 4.29808 33.6166 4.29353 33.612C4.28819 33.6065 4.28273 33.5968 4.28273 33.5816V4.11455H33.7905Z" fill="url(#paint2_linear_368_10)" stroke="#C7D2D9" stroke-width="0.5"/>
</g>
<defs>
<linearGradient id="paint0_linear_368_10" x1="12.5757" y1="6.8653" x2="2.0364" y2="9.3025" gradientUnits="userSpaceOnUse">
<stop stop-color="#2781DB"/>
<stop offset="1" stop-color="#093E74"/>
</linearGradient>
<linearGradient id="paint1_linear_368_10" x1="31.0397" y1="14.4611" x2="14.6429" y2="30.202" gradientUnits="userSpaceOnUse">
<stop stop-color="#2781DB"/>
<stop offset="1" stop-color="#093E74"/>
</linearGradient>
<linearGradient id="paint2_linear_368_10" x1="37.032" y1="0.86377" x2="1.03201" y2="36.8638" gradientUnits="userSpaceOnUse">
<stop stop-color="#2781DB"/>
<stop offset="1" stop-color="#093E74"/>
</linearGradient>
</defs>
</svg>
