<svg width="49" height="44" viewBox="0 0 49 44" fill="none" xmlns="http://www.w3.org/2000/svg">
<path id="react-icon" class="react-icon" d="M28.4963 21.6753C28.4963 22.8418 28.033 23.9606 27.2083 24.7857C26.3836 25.6107 25.265 26.0745 24.0985 26.075C22.9316 26.075 21.8125 25.6115 20.9874 24.7864C20.1622 23.9613 19.6987 22.8422 19.6987 21.6753C19.6987 20.5087 20.162 19.3899 20.9867 18.5648C21.8114 17.7398 22.93 17.276 24.0965 17.2755C25.2634 17.2755 26.3825 17.739 27.2076 18.5641C28.0327 19.3893 28.4963 20.5084 28.4963 21.6753V21.6753ZM33.7068 0.640539C31.0582 0.640539 27.5931 2.52953 24.0886 5.79985C20.5861 2.54724 17.119 0.679893 14.4725 0.679893C13.6657 0.679893 12.9318 0.862889 12.2962 1.22691C9.59062 2.7873 8.98457 7.64949 10.3816 13.7513C4.39196 15.601 0.495911 18.5584 0.495911 21.6753C0.495911 24.8039 4.41164 27.7692 10.419 29.6051C9.03376 35.7305 9.65162 40.6006 12.3631 42.159C12.9928 42.527 13.7208 42.7001 14.5315 42.7001C17.1781 42.7001 20.6452 40.8111 24.1496 37.5369C27.6521 40.7915 31.1192 42.6588 33.7658 42.6588C34.5725 42.6588 35.3065 42.4817 35.9421 42.1177C38.6457 40.5593 39.2537 35.6971 37.8566 29.5933C43.8247 27.7594 47.7207 24.796 47.7207 21.6753C47.7207 18.5466 43.805 15.5813 37.7976 13.7415C39.1829 7.62194 38.565 2.74795 35.8535 1.18756C35.198 0.81893 34.4567 0.630209 33.7048 0.640539H33.7068ZM33.6969 2.78533V2.79714C34.1397 2.79714 34.4958 2.88372 34.7949 3.04704C36.1054 3.7987 36.6741 6.65777 36.2313 10.3354C36.1251 11.2405 35.9519 12.1949 35.7394 13.1689C33.7274 12.682 31.6849 12.331 29.6257 12.1181C28.3995 10.4259 27.0618 8.81738 25.6215 7.30317C28.7541 4.39098 31.6958 2.7932 33.6989 2.7873L33.6969 2.78533ZM14.4725 2.82469C16.4638 2.82469 19.4193 4.41459 22.5597 7.31104C21.2099 8.72779 19.864 10.3354 18.585 12.1162C16.5211 12.3266 14.4743 12.6803 12.4595 13.1748C12.2483 12.252 12.0815 11.3195 11.9597 10.3807C11.5072 6.70499 12.066 3.84789 13.3647 3.08639C13.7385 2.9093 14.1518 2.83649 14.4725 2.82665V2.82469ZM24.0788 8.82617C24.9741 9.74706 25.8694 10.7781 26.7549 11.9037C25.8891 11.8643 25.0036 11.8368 24.1083 11.8368C23.2032 11.8368 22.3079 11.8564 21.4322 11.9037C22.298 10.7781 23.1933 9.74706 24.0788 8.82421V8.82617ZM24.1083 13.9934C25.5644 13.9934 27.0146 14.0603 28.4412 14.1764C29.2401 15.3216 30.0193 16.5435 30.769 17.8363C31.501 19.0956 32.166 20.3746 32.7721 21.6654C32.166 22.9543 31.501 24.2431 30.7788 25.5024C30.0311 26.8011 29.2578 28.0368 28.4569 29.182C25.5688 29.4348 22.6642 29.438 19.7754 29.1919C18.9493 28.0045 18.1728 26.7835 17.4476 25.532C16.7157 24.2726 16.0506 22.9936 15.4445 21.7028C16.0526 20.3927 16.7176 19.1099 17.4378 17.8579C18.1855 16.5592 18.9588 15.3275 19.7597 14.1823C21.2057 14.0545 22.6567 13.9901 24.1083 13.9894V13.9934ZM16.9557 14.4932C16.4835 15.235 16.0112 15.9945 15.5705 16.7757C15.1277 17.5431 14.7145 18.3144 14.321 19.0858C13.7995 17.795 13.3568 16.5081 12.9908 15.2547C14.2501 14.9595 15.5783 14.6978 16.9557 14.4951V14.4932ZM31.2412 14.4932C32.6088 14.6958 33.9271 14.9457 35.1884 15.2547C34.8343 16.4982 34.3915 17.7772 33.8898 19.0582C33.0868 17.4919 32.2035 15.9682 31.2432 14.4932H31.2412ZM37.2683 15.8213C38.2207 16.1165 39.1258 16.4451 39.9739 16.8013C43.3819 18.2574 45.5858 20.1621 45.5858 21.6733C45.5759 23.1845 43.3721 25.0971 39.964 26.5434C39.1376 26.8975 38.2325 27.2163 37.2978 27.5134C36.7068 25.5131 35.9837 23.5542 35.1333 21.6497C36.0188 19.6485 36.7272 17.6946 37.2683 15.8174V15.8213ZM10.9109 15.8292C11.458 17.7182 12.1801 19.68 13.0754 21.693C12.2312 23.5862 11.5172 25.5348 10.9385 27.5252C9.98613 27.2301 9.08099 26.8995 8.24275 26.5414C4.83469 25.0912 2.63087 23.1845 2.63087 21.6733C2.63087 20.1621 4.83469 18.2456 8.24275 16.8013C9.06918 16.4471 9.97432 16.1283 10.9109 15.8292V15.8292ZM33.8898 24.251C34.4112 25.5438 34.8539 26.8326 35.2199 28.0841C33.9606 28.393 32.6304 28.6547 31.253 28.8515C32.2121 27.365 33.0929 25.8294 33.8917 24.251H33.8898ZM14.321 24.2903C14.7145 25.0617 15.1277 25.831 15.5803 26.6024C16.0329 27.3698 16.4953 28.1214 16.9675 28.8515C15.6407 28.6595 14.3236 28.4061 13.0203 28.0919C13.3745 26.8523 13.8192 25.5693 14.319 24.2884L14.321 24.2903ZM35.7571 30.1679C35.9775 31.1379 36.1506 32.0726 36.2569 32.9679C36.7095 36.6436 36.1506 39.5007 34.852 40.2641C34.5627 40.4412 34.1869 40.516 33.7441 40.516C31.7528 40.516 28.7973 38.9281 25.6569 36.0296C27.0067 34.6129 28.3526 33.0072 29.6317 31.2284C31.8099 30.9963 33.8701 30.6381 35.7571 30.1659V30.1679ZM12.4792 30.1875C14.3682 30.648 16.4264 31.0041 18.5929 31.2343C19.8915 33.0151 21.2394 34.6326 22.5971 36.0473C19.4586 38.9654 16.513 40.5632 14.5099 40.5632C14.1315 40.5662 13.758 40.4771 13.4217 40.3035C12.1112 39.5558 11.5426 36.6947 11.9853 33.0171C12.0916 32.1119 12.2647 31.1596 12.4772 30.1875H12.4792ZM21.4519 31.4469C22.3177 31.4862 23.2032 31.5138 24.0985 31.5138C25.0036 31.5138 25.8989 31.4941 26.7745 31.4469C25.9088 32.5724 25.0135 33.6015 24.128 34.5263C23.2327 33.6015 22.3374 32.5724 21.4519 31.4469Z" fill="url(#paint0_linear_204_78)" stroke="#C7D2D9" stroke-width="0.7"/>
<defs>
<linearGradient id="paint0_linear_204_78" x1="47.7207" y1="0.640137" x2="5.94127" y2="47.55" gradientUnits="userSpaceOnUse">
<stop stop-color="#2781DB"/>
<stop offset="1" stop-color="#093E74"/>
</linearGradient>
</defs>
</svg>
