<svg width="63" height="44" viewBox="0 0 63 44" fill="none" xmlns="http://www.w3.org/2000/svg">
<g id="sass-icon">
<g id="sass-icon_2">
<mask id="path-1-outside-1_551_9" maskUnits="userSpaceOnUse" x="-0.309723" y="-0.0568848" width="63" height="44" fill="black">
<rect fill="white" x="-0.309723" y="-0.0568848" width="63" height="44"/>
<path class="sass-icon" d="M61.8462 30.5836C61.6706 29.1593 60.9488 27.9237 59.6953 26.9068C59.6797 26.8878 59.6626 26.8702 59.6439 26.8542L59.5806 26.8088L59.5603 26.7945L58.8947 26.3165L58.872 26.2998L58.7872 26.24C58.7561 26.2219 58.7227 26.2078 58.688 26.1982C56.5825 24.9447 53.0968 24.0664 47.7638 25.9484C46.4912 23.8071 46.3466 22.0912 47.1986 19.4623C47.3504 19.0046 47.2094 18.7023 46.7553 18.5063C45.8423 18.118 44.5924 18.3163 43.7058 18.5505C43.2923 18.6581 43.0438 18.8923 42.9649 19.2472C42.4033 21.8761 40.771 24.2779 39.1925 26.5961L39.0993 26.7323C38.1266 24.6699 38.3285 23.0722 39.0061 21.0707C39.1411 20.6716 39.0347 20.4063 38.6607 20.2079C37.6163 19.669 36.0498 20.0394 35.426 20.2235C34.635 20.4541 33.7865 22.5918 32.839 25.1514C32.6 25.7955 32.3944 26.3464 32.2714 26.6033C31.9786 27.2008 31.699 27.8819 31.4026 28.6048C30.7335 30.2407 29.9794 32.0821 28.9016 33.2388C28.5097 32.3725 29.1263 31.0066 29.7249 29.6815C30.4335 28.1149 31.1027 26.6343 30.332 25.6891C30.2101 25.5397 30.0589 25.4168 29.8877 25.328C29.7165 25.2393 29.5289 25.1865 29.3366 25.1729C29.0856 25.1538 28.8337 25.1948 28.6017 25.2924C28.6817 24.6173 28.6853 24.0843 28.4882 23.4403C28.2061 22.5213 27.4736 22.0063 26.4651 22.0338C24.1684 22.1007 22.2255 23.8119 20.9982 25.2363C20.1809 26.1922 18.3694 26.9211 16.7789 27.5604C16.1504 27.8269 15.5529 28.0659 15.0546 28.3049C14.26 27.6333 13.2502 26.9558 12.1867 26.24C9.19936 24.2349 5.81408 21.9609 5.69698 18.878C5.52969 14.324 10.7157 11.0941 15.2422 8.78904C18.6729 7.04442 21.6555 5.88772 24.3608 5.25559C28.1607 4.36775 31.3704 4.54699 33.8989 5.78615C35.2826 6.46368 35.9303 7.93705 35.5192 9.45224C34.4438 13.3896 29.9878 16.0878 26.1771 17.3018C23.8816 18.0331 21.9279 18.339 20.2024 18.2387C18.0396 18.1132 16.2734 17.0282 15.5182 16.5657C15.3972 16.4831 15.2693 16.4111 15.1358 16.3507L15.1012 16.3423C15.0328 16.3253 14.9611 16.3274 14.8938 16.3485C14.8266 16.3696 14.7664 16.4088 14.72 16.4618C14.5647 16.647 14.6196 16.9398 14.6758 17.0879C15.4107 19.0082 16.9283 20.2211 19.1855 20.6931C19.9243 20.841 20.6762 20.9127 21.4296 20.907C26.7125 20.907 33.4532 17.8611 35.9291 15.3529C37.6175 13.6441 38.8471 11.8875 39.3562 8.85835C39.8879 5.68577 37.737 3.4811 35.5455 2.4654C30.2196 0.00739646 24.1708 0.978886 20.0339 2.22641C15.1944 3.68544 10.1876 6.33821 6.29923 9.50721C1.50511 13.4111 -0.227557 17.0354 1.14663 20.2916C2.55786 23.6291 5.9993 25.7166 9.32722 27.7361C10.4027 28.3873 11.4255 29.0075 12.3468 29.648C12.0696 29.783 11.7864 29.9204 11.4984 30.0579C8.70465 31.4117 5.53566 32.9353 3.7779 35.453C2.5017 37.2873 2.26271 39.1132 3.0681 40.8805C3.49828 41.8209 4.26304 42.459 5.32535 42.7769C5.87795 42.9334 6.45025 43.0095 7.02456 43.0027C9.09301 43.0027 11.3694 42.1662 12.6085 41.3931C14.7977 40.0189 16.2161 38.1739 16.8255 35.9095C17.368 33.8948 17.2378 31.8933 16.4491 30.1069L19.1317 28.7542C17.8376 33.056 18.8294 35.6251 19.9192 37.0423C20.3207 37.5645 21.0448 37.8788 21.8538 37.8931C22.6628 37.9075 23.4073 37.6027 23.8279 37.0841C24.6237 36.0983 25.2116 34.9452 25.7529 33.7921C25.7242 34.5449 25.7601 35.3073 26.017 35.9537C26.2476 36.5357 26.6276 36.9216 27.1176 37.0698C27.6385 37.2287 28.2492 37.0949 28.8371 36.6934C31.4863 34.8807 33.2978 30.5299 34.7533 27.0323C34.96 26.5352 35.1583 26.0572 35.3507 25.6103C35.7108 26.8989 36.2117 28.144 36.8444 29.323C36.9854 29.5787 36.9735 29.691 36.7823 29.9013C36.4943 30.2168 36.0928 30.598 35.6674 31.0019C34.3792 32.2243 32.7756 33.7502 32.5605 35.0922C32.4769 35.6299 32.8473 36.1198 33.4221 36.2309C35.1512 36.5751 37.234 36.072 38.9953 34.8866C40.5965 33.8112 41.1988 32.3115 40.7877 30.4426C40.3898 28.643 41.298 26.4085 43.4871 23.7964C43.8456 25.2936 44.3236 26.5041 44.9832 27.564L44.9653 27.5784C43.3712 28.9705 41.1868 30.8764 41.5262 33.1886C41.5547 33.4085 41.6287 33.6201 41.7435 33.8098C41.8583 33.9995 42.0114 34.1631 42.193 34.2904C42.3871 34.4214 42.6061 34.5109 42.8364 34.5533C43.0667 34.5956 43.3033 34.5899 43.5313 34.5365C45.6189 34.098 47.1902 33.2149 48.3326 31.8395C49.475 30.4641 49.0579 28.9394 48.6732 27.7564C51.6605 26.9462 54.3205 26.9665 56.8107 27.8161C58.2088 28.2941 59.2114 29.0792 59.7897 30.163C60.5175 31.5264 60.1243 32.7847 58.6796 33.706C58.2363 33.9892 58.0224 34.1625 58.0093 34.3812C58.0063 34.4319 58.0157 34.4826 58.0365 34.529C58.0573 34.5754 58.0889 34.6161 58.1288 34.6476C58.2961 34.7851 58.8123 35.024 59.9797 34.2892C61.0552 33.614 61.6861 32.6951 61.8474 31.5408C61.8799 31.2225 61.8795 30.9018 61.8462 30.5836ZM14.0807 33.5782L14.0688 33.7311C13.8823 35.4805 12.9933 37.0053 11.422 38.2719C10.4349 39.0677 9.36307 39.5565 8.40472 39.6497C7.73555 39.7142 7.24921 39.6234 6.96003 39.3784C6.74375 39.1956 6.62784 38.922 6.60155 38.542C6.40558 35.4972 11.1806 32.4717 13.868 31.4763C14.0598 32.1594 14.1318 32.8705 14.0807 33.5782ZM26.311 24.9913C25.8688 27.5114 24.5795 32.2685 22.5529 34.1147C22.4561 34.2031 22.3748 34.2342 22.3378 34.2258C22.3007 34.2175 22.2721 34.1732 22.2422 34.1063C21.5658 32.5386 21.8156 29.8906 22.8397 27.8102C23.6271 26.2066 24.7516 25.1442 26.0086 24.8228C26.0608 24.8084 26.1146 24.8008 26.1688 24.8001C26.2111 24.7971 26.2532 24.8085 26.2883 24.8324C26.3031 24.8558 26.3127 24.882 26.3166 24.9094C26.3206 24.9368 26.3186 24.9647 26.311 24.9913ZM36.2876 34.178C35.9064 34.5759 35.3842 34.5222 35.5073 34.3764L37.4479 32.3163C37.2913 33.0249 36.8289 33.6116 36.2876 34.178ZM44.3379 32.3964C44.1534 32.4873 43.9537 32.5436 43.7488 32.5625C43.6938 31.4787 44.7442 30.2586 45.7802 29.4449C46.0586 30.5753 45.4886 31.7702 44.3379 32.3964Z"/>
</mask>
<path class="sass-icon" d="M61.8462 30.5836C61.6706 29.1593 60.9488 27.9237 59.6953 26.9068C59.6797 26.8878 59.6626 26.8702 59.6439 26.8542L59.5806 26.8088L59.5603 26.7945L58.8947 26.3165L58.872 26.2998L58.7872 26.24C58.7561 26.2219 58.7227 26.2078 58.688 26.1982C56.5825 24.9447 53.0968 24.0664 47.7638 25.9484C46.4912 23.8071 46.3466 22.0912 47.1986 19.4623C47.3504 19.0046 47.2094 18.7023 46.7553 18.5063C45.8423 18.118 44.5924 18.3163 43.7058 18.5505C43.2923 18.6581 43.0438 18.8923 42.9649 19.2472C42.4033 21.8761 40.771 24.2779 39.1925 26.5961L39.0993 26.7323C38.1266 24.6699 38.3285 23.0722 39.0061 21.0707C39.1411 20.6716 39.0347 20.4063 38.6607 20.2079C37.6163 19.669 36.0498 20.0394 35.426 20.2235C34.635 20.4541 33.7865 22.5918 32.839 25.1514C32.6 25.7955 32.3944 26.3464 32.2714 26.6033C31.9786 27.2008 31.699 27.8819 31.4026 28.6048C30.7335 30.2407 29.9794 32.0821 28.9016 33.2388C28.5097 32.3725 29.1263 31.0066 29.7249 29.6815C30.4335 28.1149 31.1027 26.6343 30.332 25.6891C30.2101 25.5397 30.0589 25.4168 29.8877 25.328C29.7165 25.2393 29.5289 25.1865 29.3366 25.1729C29.0856 25.1538 28.8337 25.1948 28.6017 25.2924C28.6817 24.6173 28.6853 24.0843 28.4882 23.4403C28.2061 22.5213 27.4736 22.0063 26.4651 22.0338C24.1684 22.1007 22.2255 23.8119 20.9982 25.2363C20.1809 26.1922 18.3694 26.9211 16.7789 27.5604C16.1504 27.8269 15.5529 28.0659 15.0546 28.3049C14.26 27.6333 13.2502 26.9558 12.1867 26.24C9.19936 24.2349 5.81408 21.9609 5.69698 18.878C5.52969 14.324 10.7157 11.0941 15.2422 8.78904C18.6729 7.04442 21.6555 5.88772 24.3608 5.25559C28.1607 4.36775 31.3704 4.54699 33.8989 5.78615C35.2826 6.46368 35.9303 7.93705 35.5192 9.45224C34.4438 13.3896 29.9878 16.0878 26.1771 17.3018C23.8816 18.0331 21.9279 18.339 20.2024 18.2387C18.0396 18.1132 16.2734 17.0282 15.5182 16.5657C15.3972 16.4831 15.2693 16.4111 15.1358 16.3507L15.1012 16.3423C15.0328 16.3253 14.9611 16.3274 14.8938 16.3485C14.8266 16.3696 14.7664 16.4088 14.72 16.4618C14.5647 16.647 14.6196 16.9398 14.6758 17.0879C15.4107 19.0082 16.9283 20.2211 19.1855 20.6931C19.9243 20.841 20.6762 20.9127 21.4296 20.907C26.7125 20.907 33.4532 17.8611 35.9291 15.3529C37.6175 13.6441 38.8471 11.8875 39.3562 8.85835C39.8879 5.68577 37.737 3.4811 35.5455 2.4654C30.2196 0.00739646 24.1708 0.978886 20.0339 2.22641C15.1944 3.68544 10.1876 6.33821 6.29923 9.50721C1.50511 13.4111 -0.227557 17.0354 1.14663 20.2916C2.55786 23.6291 5.9993 25.7166 9.32722 27.7361C10.4027 28.3873 11.4255 29.0075 12.3468 29.648C12.0696 29.783 11.7864 29.9204 11.4984 30.0579C8.70465 31.4117 5.53566 32.9353 3.7779 35.453C2.5017 37.2873 2.26271 39.1132 3.0681 40.8805C3.49828 41.8209 4.26304 42.459 5.32535 42.7769C5.87795 42.9334 6.45025 43.0095 7.02456 43.0027C9.09301 43.0027 11.3694 42.1662 12.6085 41.3931C14.7977 40.0189 16.2161 38.1739 16.8255 35.9095C17.368 33.8948 17.2378 31.8933 16.4491 30.1069L19.1317 28.7542C17.8376 33.056 18.8294 35.6251 19.9192 37.0423C20.3207 37.5645 21.0448 37.8788 21.8538 37.8931C22.6628 37.9075 23.4073 37.6027 23.8279 37.0841C24.6237 36.0983 25.2116 34.9452 25.7529 33.7921C25.7242 34.5449 25.7601 35.3073 26.017 35.9537C26.2476 36.5357 26.6276 36.9216 27.1176 37.0698C27.6385 37.2287 28.2492 37.0949 28.8371 36.6934C31.4863 34.8807 33.2978 30.5299 34.7533 27.0323C34.96 26.5352 35.1583 26.0572 35.3507 25.6103C35.7108 26.8989 36.2117 28.144 36.8444 29.323C36.9854 29.5787 36.9735 29.691 36.7823 29.9013C36.4943 30.2168 36.0928 30.598 35.6674 31.0019C34.3792 32.2243 32.7756 33.7502 32.5605 35.0922C32.4769 35.6299 32.8473 36.1198 33.4221 36.2309C35.1512 36.5751 37.234 36.072 38.9953 34.8866C40.5965 33.8112 41.1988 32.3115 40.7877 30.4426C40.3898 28.643 41.298 26.4085 43.4871 23.7964C43.8456 25.2936 44.3236 26.5041 44.9832 27.564L44.9653 27.5784C43.3712 28.9705 41.1868 30.8764 41.5262 33.1886C41.5547 33.4085 41.6287 33.6201 41.7435 33.8098C41.8583 33.9995 42.0114 34.1631 42.193 34.2904C42.3871 34.4214 42.6061 34.5109 42.8364 34.5533C43.0667 34.5956 43.3033 34.5899 43.5313 34.5365C45.6189 34.098 47.1902 33.2149 48.3326 31.8395C49.475 30.4641 49.0579 28.9394 48.6732 27.7564C51.6605 26.9462 54.3205 26.9665 56.8107 27.8161C58.2088 28.2941 59.2114 29.0792 59.7897 30.163C60.5175 31.5264 60.1243 32.7847 58.6796 33.706C58.2363 33.9892 58.0224 34.1625 58.0093 34.3812C58.0063 34.4319 58.0157 34.4826 58.0365 34.529C58.0573 34.5754 58.0889 34.6161 58.1288 34.6476C58.2961 34.7851 58.8123 35.024 59.9797 34.2892C61.0552 33.614 61.6861 32.6951 61.8474 31.5408C61.8799 31.2225 61.8795 30.9018 61.8462 30.5836ZM14.0807 33.5782L14.0688 33.7311C13.8823 35.4805 12.9933 37.0053 11.422 38.2719C10.4349 39.0677 9.36307 39.5565 8.40472 39.6497C7.73555 39.7142 7.24921 39.6234 6.96003 39.3784C6.74375 39.1956 6.62784 38.922 6.60155 38.542C6.40558 35.4972 11.1806 32.4717 13.868 31.4763C14.0598 32.1594 14.1318 32.8705 14.0807 33.5782ZM26.311 24.9913C25.8688 27.5114 24.5795 32.2685 22.5529 34.1147C22.4561 34.2031 22.3748 34.2342 22.3378 34.2258C22.3007 34.2175 22.2721 34.1732 22.2422 34.1063C21.5658 32.5386 21.8156 29.8906 22.8397 27.8102C23.6271 26.2066 24.7516 25.1442 26.0086 24.8228C26.0608 24.8084 26.1146 24.8008 26.1688 24.8001C26.2111 24.7971 26.2532 24.8085 26.2883 24.8324C26.3031 24.8558 26.3127 24.882 26.3166 24.9094C26.3206 24.9368 26.3186 24.9647 26.311 24.9913ZM36.2876 34.178C35.9064 34.5759 35.3842 34.5222 35.5073 34.3764L37.4479 32.3163C37.2913 33.0249 36.8289 33.6116 36.2876 34.178ZM44.3379 32.3964C44.1534 32.4873 43.9537 32.5436 43.7488 32.5625C43.6938 31.4787 44.7442 30.2586 45.7802 29.4449C46.0586 30.5753 45.4886 31.7702 44.3379 32.3964Z" fill="url(#paint0_linear_551_9)"/>
<path class="sass-icon" d="M61.8462 30.5836C61.6706 29.1593 60.9488 27.9237 59.6953 26.9068C59.6797 26.8878 59.6626 26.8702 59.6439 26.8542L59.5806 26.8088L59.5603 26.7945L58.8947 26.3165L58.872 26.2998L58.7872 26.24C58.7561 26.2219 58.7227 26.2078 58.688 26.1982C56.5825 24.9447 53.0968 24.0664 47.7638 25.9484C46.4912 23.8071 46.3466 22.0912 47.1986 19.4623C47.3504 19.0046 47.2094 18.7023 46.7553 18.5063C45.8423 18.118 44.5924 18.3163 43.7058 18.5505C43.2923 18.6581 43.0438 18.8923 42.9649 19.2472C42.4033 21.8761 40.771 24.2779 39.1925 26.5961L39.0993 26.7323C38.1266 24.6699 38.3285 23.0722 39.0061 21.0707C39.1411 20.6716 39.0347 20.4063 38.6607 20.2079C37.6163 19.669 36.0498 20.0394 35.426 20.2235C34.635 20.4541 33.7865 22.5918 32.839 25.1514C32.6 25.7955 32.3944 26.3464 32.2714 26.6033C31.9786 27.2008 31.699 27.8819 31.4026 28.6048C30.7335 30.2407 29.9794 32.0821 28.9016 33.2388C28.5097 32.3725 29.1263 31.0066 29.7249 29.6815C30.4335 28.1149 31.1027 26.6343 30.332 25.6891C30.2101 25.5397 30.0589 25.4168 29.8877 25.328C29.7165 25.2393 29.5289 25.1865 29.3366 25.1729C29.0856 25.1538 28.8337 25.1948 28.6017 25.2924C28.6817 24.6173 28.6853 24.0843 28.4882 23.4403C28.2061 22.5213 27.4736 22.0063 26.4651 22.0338C24.1684 22.1007 22.2255 23.8119 20.9982 25.2363C20.1809 26.1922 18.3694 26.9211 16.7789 27.5604C16.1504 27.8269 15.5529 28.0659 15.0546 28.3049C14.26 27.6333 13.2502 26.9558 12.1867 26.24C9.19936 24.2349 5.81408 21.9609 5.69698 18.878C5.52969 14.324 10.7157 11.0941 15.2422 8.78904C18.6729 7.04442 21.6555 5.88772 24.3608 5.25559C28.1607 4.36775 31.3704 4.54699 33.8989 5.78615C35.2826 6.46368 35.9303 7.93705 35.5192 9.45224C34.4438 13.3896 29.9878 16.0878 26.1771 17.3018C23.8816 18.0331 21.9279 18.339 20.2024 18.2387C18.0396 18.1132 16.2734 17.0282 15.5182 16.5657C15.3972 16.4831 15.2693 16.4111 15.1358 16.3507L15.1012 16.3423C15.0328 16.3253 14.9611 16.3274 14.8938 16.3485C14.8266 16.3696 14.7664 16.4088 14.72 16.4618C14.5647 16.647 14.6196 16.9398 14.6758 17.0879C15.4107 19.0082 16.9283 20.2211 19.1855 20.6931C19.9243 20.841 20.6762 20.9127 21.4296 20.907C26.7125 20.907 33.4532 17.8611 35.9291 15.3529C37.6175 13.6441 38.8471 11.8875 39.3562 8.85835C39.8879 5.68577 37.737 3.4811 35.5455 2.4654C30.2196 0.00739646 24.1708 0.978886 20.0339 2.22641C15.1944 3.68544 10.1876 6.33821 6.29923 9.50721C1.50511 13.4111 -0.227557 17.0354 1.14663 20.2916C2.55786 23.6291 5.9993 25.7166 9.32722 27.7361C10.4027 28.3873 11.4255 29.0075 12.3468 29.648C12.0696 29.783 11.7864 29.9204 11.4984 30.0579C8.70465 31.4117 5.53566 32.9353 3.7779 35.453C2.5017 37.2873 2.26271 39.1132 3.0681 40.8805C3.49828 41.8209 4.26304 42.459 5.32535 42.7769C5.87795 42.9334 6.45025 43.0095 7.02456 43.0027C9.09301 43.0027 11.3694 42.1662 12.6085 41.3931C14.7977 40.0189 16.2161 38.1739 16.8255 35.9095C17.368 33.8948 17.2378 31.8933 16.4491 30.1069L19.1317 28.7542C17.8376 33.056 18.8294 35.6251 19.9192 37.0423C20.3207 37.5645 21.0448 37.8788 21.8538 37.8931C22.6628 37.9075 23.4073 37.6027 23.8279 37.0841C24.6237 36.0983 25.2116 34.9452 25.7529 33.7921C25.7242 34.5449 25.7601 35.3073 26.017 35.9537C26.2476 36.5357 26.6276 36.9216 27.1176 37.0698C27.6385 37.2287 28.2492 37.0949 28.8371 36.6934C31.4863 34.8807 33.2978 30.5299 34.7533 27.0323C34.96 26.5352 35.1583 26.0572 35.3507 25.6103C35.7108 26.8989 36.2117 28.144 36.8444 29.323C36.9854 29.5787 36.9735 29.691 36.7823 29.9013C36.4943 30.2168 36.0928 30.598 35.6674 31.0019C34.3792 32.2243 32.7756 33.7502 32.5605 35.0922C32.4769 35.6299 32.8473 36.1198 33.4221 36.2309C35.1512 36.5751 37.234 36.072 38.9953 34.8866C40.5965 33.8112 41.1988 32.3115 40.7877 30.4426C40.3898 28.643 41.298 26.4085 43.4871 23.7964C43.8456 25.2936 44.3236 26.5041 44.9832 27.564L44.9653 27.5784C43.3712 28.9705 41.1868 30.8764 41.5262 33.1886C41.5547 33.4085 41.6287 33.6201 41.7435 33.8098C41.8583 33.9995 42.0114 34.1631 42.193 34.2904C42.3871 34.4214 42.6061 34.5109 42.8364 34.5533C43.0667 34.5956 43.3033 34.5899 43.5313 34.5365C45.6189 34.098 47.1902 33.2149 48.3326 31.8395C49.475 30.4641 49.0579 28.9394 48.6732 27.7564C51.6605 26.9462 54.3205 26.9665 56.8107 27.8161C58.2088 28.2941 59.2114 29.0792 59.7897 30.163C60.5175 31.5264 60.1243 32.7847 58.6796 33.706C58.2363 33.9892 58.0224 34.1625 58.0093 34.3812C58.0063 34.4319 58.0157 34.4826 58.0365 34.529C58.0573 34.5754 58.0889 34.6161 58.1288 34.6476C58.2961 34.7851 58.8123 35.024 59.9797 34.2892C61.0552 33.614 61.6861 32.6951 61.8474 31.5408C61.8799 31.2225 61.8795 30.9018 61.8462 30.5836ZM14.0807 33.5782L14.0688 33.7311C13.8823 35.4805 12.9933 37.0053 11.422 38.2719C10.4349 39.0677 9.36307 39.5565 8.40472 39.6497C7.73555 39.7142 7.24921 39.6234 6.96003 39.3784C6.74375 39.1956 6.62784 38.922 6.60155 38.542C6.40558 35.4972 11.1806 32.4717 13.868 31.4763C14.0598 32.1594 14.1318 32.8705 14.0807 33.5782ZM26.311 24.9913C25.8688 27.5114 24.5795 32.2685 22.5529 34.1147C22.4561 34.2031 22.3748 34.2342 22.3378 34.2258C22.3007 34.2175 22.2721 34.1732 22.2422 34.1063C21.5658 32.5386 21.8156 29.8906 22.8397 27.8102C23.6271 26.2066 24.7516 25.1442 26.0086 24.8228C26.0608 24.8084 26.1146 24.8008 26.1688 24.8001C26.2111 24.7971 26.2532 24.8085 26.2883 24.8324C26.3031 24.8558 26.3127 24.882 26.3166 24.9094C26.3206 24.9368 26.3186 24.9647 26.311 24.9913ZM36.2876 34.178C35.9064 34.5759 35.3842 34.5222 35.5073 34.3764L37.4479 32.3163C37.2913 33.0249 36.8289 33.6116 36.2876 34.178ZM44.3379 32.3964C44.1534 32.4873 43.9537 32.5436 43.7488 32.5625C43.6938 31.4787 44.7442 30.2586 45.7802 29.4449C46.0586 30.5753 45.4886 31.7702 44.3379 32.3964Z" stroke="#C7D2D9" mask="url(#path-1-outside-1_551_9)"/>
</g>
</g>
<defs>
<linearGradient id="paint0_linear_551_9" x1="61.8715" y1="0.943115" x2="22.6013" y2="58.0662" gradientUnits="userSpaceOnUse">
<stop stop-color="#2781DB"/>
<stop offset="1" stop-color="#093E74"/>
</linearGradient>
</defs>
</svg>
