<svg width="466" height="474" viewBox="0 0 466 474" fill="none" xmlns="http://www.w3.org/2000/svg">
<g id="Group 5252">
<path id="contact-rectangle-1" class="contact-rectangle-1" d="M47.0203 23.4348C46.0061 170.17 46.1681 251.591 47.0203 396.169C193.372 397.518 275.282 396.887 421.418 396.169C422.747 251.254 422.777 169.742 421.418 23.4348C275.573 22.6009 193.627 22.5368 47.0203 23.4348Z" stroke="#04080B"/>
<path id="contact-rectangle-end" class="contact-rectangle-end" d="M278.058 2.12468C178.288 67.9533 122.746 105.333 24.7932 173.33C91.398 273.026 129.077 328.701 196.763 427.726C296.246 361.663 351.788 324.298 450.028 256.52C384.113 157.116 346.532 101.405 278.058 2.12468Z" stroke="#2781DB"/>
<path id="contact-rectangle-2" class="contact-rectangle-2" d="M53.4517 22.8476C48.4702 168.746 46.4268 249.739 43.3944 393.583C188.922 398.861 270.41 400.457 415.785 403.686C421.014 259.568 423.247 178.491 425.843 32.9497C280.812 28.1747 199.307 25.8995 53.4517 22.8476Z" stroke="#050B11"/>
<path id="contact-rectangle-3" class="contact-rectangle-3" d="M59.8823 22.2604C50.9782 167.214 46.7526 247.72 39.8761 390.728C184.474 399.891 265.481 403.691 409.989 410.823C419.076 267.607 423.488 187.025 429.995 42.3559C285.884 33.6834 204.88 29.221 59.8823 22.2604Z" stroke="#060F17"/>
<path id="contact-rectangle-4" class="contact-rectangle-4" d="M66.3122 21.6729C53.5329 165.578 47.1501 245.539 36.4725 387.607C180.038 400.609 260.504 406.587 404.04 417.579C416.94 275.368 423.506 195.339 433.879 51.6458C290.793 39.1222 210.348 32.4979 66.3122 21.6729Z" stroke="#07121C"/>
<path id="contact-rectangle-5" class="contact-rectangle-5" d="M72.7412 21.0863C56.1371 163.839 47.6235 243.197 33.1908 384.225C175.623 401.017 255.49 409.147 397.951 423.952C414.617 282.845 423.31 203.427 437.501 60.8132C295.542 44.4877 215.713 35.7287 72.7412 21.0863Z" stroke="#081622"/>
<path id="contact-rectangle-6" class="contact-rectangle-6" d="M79.1695 20.4989C58.7936 161.999 48.1772 240.697 30.0377 380.587C171.236 401.116 250.447 411.371 391.733 429.938C412.114 290.036 422.907 211.283 440.865 69.85C300.133 49.7743 220.977 38.9091 79.1695 20.4989Z" stroke="#091928"/>
<path id="contact-rectangle-7" class="contact-rectangle-7" d="M85.5969 18.9115C61.5049 159.06 48.8152 237.043 27.02 375.697C166.888 399.91 245.386 412.259 385.399 434.536C409.442 295.935 422.304 217.904 443.976 77.7499C304.569 53.9786 226.141 41.0371 85.5969 18.9115Z" stroke="#0A1C2E"/>
<path id="contact-rectangle-8" class="contact-rectangle-8" d="M92.0236 19.324C64.2737 158.023 49.5417 235.237 24.1444 372.562C162.586 400.401 240.317 414.813 378.959 440.744C406.609 303.54 421.509 226.285 446.838 87.5063C308.854 60.0964 231.207 45.1101 92.0236 19.324Z" stroke="#0B2033"/>
<path id="contact-rectangle-9" class="contact-rectangle-9" d="M98.4495 18.7368C67.1025 155.893 50.3604 232.284 21.417 368.185C158.339 399.592 235.249 416.035 372.426 445.562C403.624 309.848 420.53 233.421 449.458 96.1132C312.99 65.1243 236.179 48.1261 98.4495 18.7368Z" stroke="#0C2339"/>
<path id="contact-rectangle-10" class="contact-rectangle-10" d="M104.874 18.1491C69.9936 153.669 51.2751 229.186 18.8439 363.573C154.156 398.485 230.192 416.925 365.81 449.988C400.497 315.855 419.375 240.308 451.841 104.564C316.981 70.0577 241.057 51.0817 104.874 18.1491Z" stroke="#0D263F"/>
<path id="contact-rectangle-11" class="contact-rectangle-11" d="M111.299 17.5611C72.9495 151.354 52.2897 225.947 16.4315 358.732C150.044 397.084 225.155 417.486 359.125 454.022C397.238 321.559 418.052 246.943 453.992 112.852C320.831 74.8932 245.843 53.9749 111.299 17.5611Z" stroke="#0E2A45"/>
<path id="contact-rectangle-12" class="contact-rectangle-12" d="M117.722 16.973C75.9724 148.952 53.4076 222.57 14.1853 353.666C141.635 394.007 215.16 416.216 339.397 453.743L352.381 457.665C393.854 326.958 416.568 253.322 455.918 120.972C324.542 79.6272 250.541 56.8035 117.722 16.973Z" stroke="#0F2D4B"/>
<path id="contact-rectangle-13" class="contact-rectangle-13" d="M124.145 16.385C79.0645 146.464 54.6323 219.06 12.1109 348.382C138.683 392.242 211.331 416.355 335.515 457.572L345.59 460.916C390.357 332.05 414.933 259.441 457.624 128.919C328.119 84.2568 255.152 59.5656 124.145 16.385Z" stroke="#103050"/>
<path id="contact-rectangle-14" class="contact-rectangle-14" d="M130.567 15.7964C82.228 143.893 55.9671 215.419 10.2138 342.886C135.847 390.26 207.569 416.245 331.679 461.209L338.763 463.776C386.755 336.832 413.154 265.298 459.116 136.686C331.565 88.7777 259.679 62.2583 130.567 15.7964Z" stroke="#113456"/>
<path id="contact-rectangle-15" class="contact-rectangle-15" d="M136.988 15.2074C85.4648 141.24 57.4153 211.652 8.49917 337.183C133.129 388.067 203.874 415.89 327.885 464.661L331.912 466.245C383.057 341.304 411.24 270.889 460.401 144.269C334.884 93.1871 264.124 64.8798 136.988 15.2074Z" stroke="#12375C"/>
<path id="contact-rectangle-16" class="contact-rectangle-16" d="M143.408 14.6181C88.777 138.51 58.9797 207.762 6.97199 331.281C130.547 385.675 200.268 415.302 324.177 467.956L325.049 468.326C379.274 345.464 409.199 276.213 461.485 151.663C338.08 97.482 268.489 67.4283 143.408 14.6181Z" stroke="#133B62"/>
<path id="contact-rectangle-17" class="contact-rectangle-17" d="M149.827 14.0292C92.1664 135.704 60.6636 203.755 5.63716 325.187C127.319 382.72 195.87 414.082 318.184 470.02C375.414 349.313 407.039 281.267 462.374 158.863C341.156 101.66 272.778 69.9023 149.827 14.0292Z" stroke="#143E68"/>
<path id="contact-rectangle-18" class="contact-rectangle-18" d="M156.246 13.4391C95.6348 132.825 62.4696 199.632 4.49923 318.904C123.927 379.372 191.229 412.415 311.328 471.328C371.487 352.847 404.769 286.048 463.075 165.863C344.117 105.717 276.992 72.2987 156.246 13.4391Z" stroke="#15416D"/>
<path id="contact-rectangle-19" class="contact-rectangle-19" d="M162.663 12.8487C99.1838 129.875 64.4003 195.4 3.56235 312.442C120.666 375.764 186.68 410.444 304.493 472.253C367.503 356.068 402.396 290.555 463.594 172.66C346.966 109.651 281.134 74.6166 162.663 12.8487Z" stroke="#164573"/>
<path id="contact-rectangle-20" class="contact-rectangle-20" d="M169.08 12.2579C102.815 126.858 66.4585 191.061 2.83103 305.806C117.545 371.902 182.231 408.172 297.69 472.798C363.47 358.976 399.93 294.787 463.939 179.249C349.708 113.459 285.207 76.8542 169.08 12.2579Z" stroke="#174879"/>
<path id="contact-rectangle-21" class="contact-rectangle-21" d="M175.497 11.6666C106.531 123.775 68.6466 186.62 2.30916 299.004C114.569 367.79 177.89 405.605 290.93 472.965C359.398 361.57 397.379 298.742 464.117 185.627C352.348 117.139 289.213 79.0099 175.497 11.6666Z" stroke="#184B7F"/>
<path id="contact-rectangle-22" class="contact-rectangle-22" d="M181.912 11.0753C110.331 120.631 70.9667 182.083 2.00026 292.043C111.745 363.435 173.665 402.747 284.222 472.758C355.296 363.852 394.752 302.419 464.134 191.79C354.888 120.689 293.155 81.0826 181.912 11.0753Z" stroke="#1B4F84"/>
<path id="contact-rectangle-23" class="contact-rectangle-23" d="M188.327 10.4831C114.219 117.427 73.4211 177.451 1.9081 284.928C109.079 358.842 169.564 399.603 277.578 472.179C351.173 365.821 392.056 305.818 463.997 197.734C357.334 124.106 297.037 83.0702 188.327 10.4831Z" stroke="#1A528A"/>
<path id="contact-rectangle-24" class="contact-rectangle-24" d="M194.74 9.89031C118.194 114.166 76.0116 172.731 2.03571 277.668C106.578 354.015 165.594 396.177 271.009 471.233C347.039 367.479 389.301 308.937 463.713 203.455C359.689 127.388 300.86 84.9715 194.74 9.89031Z" stroke="#1B5690"/>
<path id="contact-rectangle-25" class="contact-rectangle-25" d="M201.154 9.29697C122.258 110.852 78.7404 167.927 2.38641 270.269C104.247 348.963 161.763 392.475 264.523 469.923C342.903 368.828 386.493 311.777 463.291 208.952C361.958 130.533 304.627 86.7855 201.154 9.29697Z" stroke="#1C5996"/>
<path id="contact-rectangle-26" class="contact-rectangle-26" d="M207.566 8.70365C126.413 107.488 81.609 163.043 2.96292 262.739C102.092 343.691 158.079 388.504 258.133 468.256C338.773 369.868 383.643 314.338 462.736 214.22C364.146 133.541 308.341 88.5115 207.566 8.70365Z" stroke="#1D5C9C"/>
<path id="contact-rectangle-27" class="contact-rectangle-27" d="M213.978 8.10897C130.659 104.074 84.6188 158.083 3.76766 255.085C100.118 338.203 154.548 384.267 251.846 466.233C334.659 370.602 380.759 316.62 462.056 219.257C366.257 136.408 312.005 90.1472 213.978 8.10897Z" stroke="#1E60A1"/>
<path id="contact-rectangle-28" class="contact-rectangle-28" d="M220.389 7.51378C134.997 100.616 87.7717 153.052 4.80341 247.314C98.3302 332.509 151.177 379.771 245.674 463.862C330.569 371.031 377.847 318.622 461.259 224.062C368.295 139.134 315.623 91.6924 220.389 7.51378Z" stroke="#1F63A7"/>
<path id="contact-rectangle-29" class="contact-rectangle-29" d="M226.799 6.91791C139.427 97.1162 91.0686 147.954 6.07193 239.433C96.7344 326.613 147.973 375.022 239.625 461.146C326.512 371.159 374.918 320.347 460.352 228.63C370.265 141.716 319.196 93.1461 226.799 6.91791Z" stroke="#2066AD"/>
<path id="contact-rectangle-30" class="contact-rectangle-30" d="M233.209 6.32195C143.952 93.5775 94.511 142.796 7.57556 231.451C95.3351 320.524 144.942 370.027 233.709 458.091C322.496 370.987 371.978 321.795 459.343 232.962C372.172 144.155 322.727 94.5081 233.209 6.32195Z" stroke="#216AB3"/>
<path id="contact-rectangle-31" class="contact-rectangle-31" d="M239.618 5.72448C148.571 90.0017 98.0997 137.579 9.31568 223.373C94.1368 314.245 142.091 364.791 227.936 454.703C318.53 370.518 369.036 322.966 458.238 237.055C374.019 146.449 326.22 95.7763 239.618 5.72448Z" stroke="#226DB9"/>
<path id="contact-rectangle-32" class="contact-rectangle-32" d="M246.026 5.12645C153.284 86.3929 101.836 132.31 11.294 215.208C93.1439 307.787 139.426 359.321 222.313 450.988C314.623 369.756 366.101 323.863 457.045 240.906C375.811 148.596 329.678 96.9511 246.026 5.12645Z" stroke="#2371BE"/>
<path id="contact-rectangle-33" class="contact-rectangle-33" d="M252.434 4.52764C158.093 82.7537 105.72 126.992 13.5116 206.963C92.3605 301.154 136.951 353.624 216.85 446.951C310.783 368.703 363.179 324.488 455.772 244.516C377.554 150.596 333.102 98.0316 252.434 4.52764Z" stroke="#2474C4"/>
<path id="contact-rectangle-34" class="contact-rectangle-34" d="M258.841 3.92864C162.998 79.0878 109.752 121.632 15.9696 198.645C91.7907 294.355 134.674 347.707 211.556 442.601C307.017 367.364 360.279 324.842 454.427 247.884C379.25 152.449 336.497 99.0181 258.841 3.92864Z" stroke="#2577CA"/>
<path id="contact-rectangle-35" class="contact-rectangle-35" d="M265.247 3.3281C167.998 75.3967 113.934 116.232 18.6689 190.262C91.438 287.395 132.599 341.575 206.438 437.941C303.334 365.741 357.409 324.926 453.016 251.007C380.906 154.153 339.865 99.9089 265.247 3.3281Z" stroke="#267BD0"/>
<path id="contact-rectangle-36" class="contact-rectangle-36" d="M271.653 2.72682C173.095 71.6843 118.265 110.797 21.6099 181.821C91.306 280.283 130.732 335.238 201.504 432.981C299.741 363.839 354.576 324.744 451.547 253.886C382.525 155.709 343.209 100.705 271.653 2.72682Z" stroke="#267ED6"/>
</g>
</svg>
