<svg width="1239" height="811" viewBox="0 0 1239 811" fill="none" xmlns="http://www.w3.org/2000/svg">
<g id="squares">
<g id="square-1" class="square-1" filter="url(#filter0_f_1032_12)">
<path d="M202.376 373.549L150.275 244.023L20.2208 296.214L72.8288 425.857L202.376 373.549Z" fill="url(#paint0_linear_1032_12)"/>
<path d="M149.729 244.243L141.532 247.532L141.718 247.996L140.625 248.435L140.439 247.971L132.242 251.26L132.429 251.724L131.336 252.163L131.15 251.699L122.953 254.988L123.139 255.452L122.046 255.89L121.86 255.426L113.663 258.716L113.849 259.18L112.757 259.618L112.57 259.154L104.374 262.444L104.56 262.908L103.467 263.346L103.281 262.882L95.0841 266.172L95.2703 266.636L94.1774 267.074L93.9912 266.61L85.7945 269.899L85.9807 270.363L84.8878 270.802L84.7016 270.338L76.5049 273.627L76.6911 274.091L75.5982 274.53L75.412 274.066L67.2153 277.355L67.4015 277.819L66.3086 278.258L66.1224 277.794L57.9257 281.083L58.1119 281.547L57.019 281.986L56.8328 281.522L48.6361 284.811L48.8223 285.275L47.7294 285.714L47.5432 285.25L39.3464 288.539L39.5327 289.003L38.4398 289.441L38.2536 288.977L30.0568 292.267L30.2431 292.731L29.1502 293.169L28.964 292.705L20.7672 295.995L20.9535 296.459L20.8729 296.491L20.9052 296.571L20.4419 296.759L23.7575 304.929L24.2208 304.741L24.6629 305.831L24.1996 306.019L27.5152 314.19L27.9785 314.002L28.4206 315.091L27.9573 315.279L31.2729 323.45L31.7362 323.262L32.1783 324.351L31.715 324.539L35.0306 332.71L35.4939 332.522L35.936 333.611L35.4727 333.799L38.7883 341.97L39.2516 341.782L39.6937 342.872L39.2304 343.06L42.546 351.23L43.0094 351.042L43.4514 352.132L42.9881 352.32L46.3038 360.491L46.7671 360.303L47.2091 361.392L46.7458 361.58L50.0615 369.751L50.5248 369.563L50.9669 370.652L50.5035 370.84L53.8192 379.011L54.2825 378.823L54.7246 379.912L54.2613 380.1L57.5769 388.271L58.0402 388.083L58.4823 389.173L58.019 389.361L61.3346 397.531L61.7979 397.343L62.24 398.433L61.7767 398.621L65.0923 406.791L65.5556 406.603L65.9977 407.693L65.5344 407.881L68.85 416.052L69.3133 415.864L69.7554 416.953L69.2921 417.141L72.6077 425.312L73.071 425.124L73.1044 425.206L73.1859 425.173L73.3731 425.637L81.5378 422.34L81.3506 421.877L82.4392 421.437L82.6264 421.901L90.7911 418.604L90.6039 418.14L91.6926 417.701L91.8798 418.164L100.044 414.868L99.8573 414.404L100.946 413.964L101.133 414.428L109.298 411.131L109.111 410.668L110.199 410.228L110.386 410.692L118.551 407.395L118.364 406.931L119.453 406.492L119.64 406.956L127.804 403.659L127.617 403.195L128.706 402.756L128.893 403.219L137.058 399.923L136.871 399.459L137.959 399.019L138.146 399.483L146.311 396.186L146.124 395.723L147.213 395.283L147.4 395.747L155.564 392.45L155.377 391.986L156.466 391.547L156.653 392.011L164.818 388.714L164.631 388.25L165.719 387.811L165.906 388.274L174.071 384.978L173.884 384.514L174.973 384.074L175.16 384.538L183.325 381.241L183.137 380.778L184.226 380.338L184.413 380.802L192.578 377.505L192.391 377.041L193.479 376.602L193.666 377.066L201.831 373.769L201.644 373.305L201.725 373.272L201.693 373.191L202.157 373.005L198.873 364.841L198.409 365.028L197.971 363.94L198.435 363.753L195.152 355.59L194.688 355.776L194.25 354.688L194.714 354.501L191.43 346.338L190.966 346.524L190.528 345.436L190.992 345.249L187.709 337.086L187.245 337.273L186.807 336.184L187.271 335.998L183.987 327.834L183.523 328.021L183.085 326.932L183.549 326.746L180.266 318.582L179.802 318.769L179.364 317.68L179.828 317.494L176.544 309.331L176.08 309.517L175.643 308.429L176.106 308.242L172.823 300.079L172.359 300.265L171.921 299.177L172.385 298.99L169.101 290.827L168.637 291.013L168.2 289.925L168.664 289.738L165.38 281.575L164.916 281.762L164.478 280.673L164.942 280.487L161.658 272.323L161.195 272.51L160.757 271.421L161.221 271.235L157.937 263.071L157.473 263.258L157.035 262.17L157.499 261.983L154.216 253.82L153.752 254.006L153.314 252.918L153.778 252.731L150.494 244.568L150.03 244.754L149.998 244.674L149.915 244.707L149.729 244.243Z" stroke="#2781DB" stroke-dasharray="1.15 8.6"/>
</g>
<g id="square-2" filter="url(#filter1_f_1032_12)">
<path d="M692.001 491.898L559.679 536.418L604.259 669.274L736.727 624.253L692.001 491.898Z" fill="url(#paint1_linear_1032_12)"/>
<path d="M559.866 536.977L562.676 545.35L563.15 545.191L563.524 546.307L563.05 546.466L565.86 554.839L566.334 554.68L566.709 555.797L566.235 555.956L569.044 564.329L569.518 564.17L569.893 565.287L569.419 565.446L572.229 573.819L572.703 573.66L573.077 574.776L572.603 574.935L575.413 583.309L575.887 583.149L576.261 584.266L575.787 584.425L578.597 592.798L579.071 592.639L579.446 593.756L578.972 593.915L581.781 602.288L582.255 602.129L582.63 603.245L582.156 603.404L584.966 611.778L585.44 611.619L585.814 612.735L585.34 612.894L588.15 621.267L588.624 621.108L588.999 622.225L588.525 622.384L591.334 630.757L591.808 630.598L592.183 631.714L591.709 631.873L594.519 640.247L594.993 640.088L595.367 641.204L594.893 641.363L597.703 649.736L598.177 649.577L598.552 650.694L598.078 650.853L600.887 659.226L601.361 659.067L601.736 660.183L601.262 660.342L604.072 668.716L604.546 668.557L604.573 668.639L604.655 668.611L604.815 669.085L613.164 666.247L613.003 665.774L614.117 665.396L614.277 665.869L622.626 663.031L622.465 662.558L623.579 662.18L623.739 662.653L632.088 659.816L631.927 659.342L633.041 658.964L633.202 659.437L641.55 656.6L641.39 656.127L642.503 655.748L642.664 656.222L651.012 653.384L650.852 652.911L651.965 652.532L652.126 653.006L660.475 650.168L660.314 649.695L661.427 649.317L661.588 649.79L669.937 646.953L669.776 646.479L670.889 646.101L671.05 646.574L679.399 643.737L679.238 643.263L680.351 642.885L680.512 643.359L688.861 640.521L688.7 640.048L689.813 639.669L689.974 640.143L698.323 637.305L698.162 636.832L699.275 636.454L699.436 636.927L707.785 634.09L707.624 633.616L708.737 633.238L708.898 633.711L717.247 630.874L717.086 630.4L718.199 630.022L718.36 630.495L726.709 627.658L726.548 627.185L727.661 626.806L727.822 627.28L736.171 624.442L736.01 623.969L736.094 623.94L736.066 623.857L736.54 623.697L733.721 615.355L733.247 615.515L732.871 614.403L733.345 614.243L730.526 605.901L730.052 606.061L729.676 604.949L730.15 604.789L727.331 596.447L726.857 596.607L726.482 595.495L726.955 595.335L724.136 586.993L723.663 587.153L723.287 586.041L723.761 585.881L720.942 577.539L720.468 577.699L720.092 576.587L720.566 576.427L717.747 568.085L717.273 568.245L716.897 567.133L717.371 566.973L714.552 558.631L714.078 558.792L713.703 557.679L714.176 557.519L711.357 549.177L710.884 549.338L710.508 548.225L710.982 548.065L708.163 539.724L707.689 539.884L707.313 538.771L707.787 538.611L704.968 530.27L704.494 530.43L704.118 529.317L704.592 529.157L701.773 520.816L701.299 520.976L700.924 519.863L701.397 519.703L698.578 511.362L698.105 511.522L697.729 510.409L698.203 510.249L695.384 501.908L694.91 502.068L694.534 500.955L695.008 500.795L692.189 492.454L691.715 492.614L691.687 492.531L691.604 492.559L691.445 492.085L683.105 494.891L683.265 495.364L682.153 495.739L681.993 495.265L673.654 498.071L673.813 498.545L672.701 498.919L672.542 498.445L664.202 501.251L664.362 501.725L663.25 502.099L663.09 501.625L654.751 504.431L654.91 504.905L653.798 505.279L653.639 504.805L645.299 507.611L645.458 508.085L644.346 508.459L644.187 507.985L635.847 510.791L636.007 511.265L634.895 511.639L634.735 511.165L626.396 513.971L626.555 514.445L625.443 514.819L625.284 514.345L616.944 517.151L617.104 517.625L615.992 517.999L615.832 517.525L607.493 520.331L607.652 520.805L606.54 521.179L606.381 520.705L598.041 523.511L598.2 523.985L597.089 524.359L596.929 523.885L588.589 526.691L588.749 527.165L587.637 527.539L587.477 527.065L579.138 529.871L579.297 530.345L578.185 530.719L578.026 530.245L569.686 533.051L569.846 533.525L568.734 533.899L568.574 533.425L560.235 536.231L560.394 536.705L560.312 536.733L560.34 536.818L559.866 536.977Z" stroke="#2781DB" stroke-dasharray="1.15 8.6"/>
</g>
<g id="square-3" filter="url(#filter2_f_1032_12)">
<path d="M1013.67 376.133L1144.46 424.959L1193.58 293.712L1062.36 245.182L1013.67 376.133Z" fill="url(#paint2_linear_1032_12)"/>
<path d="M1144.67 424.407L1147.76 416.135L1147.3 415.96L1147.71 414.857L1148.18 415.032L1151.27 406.761L1150.8 406.585L1151.22 405.482L1151.69 405.658L1154.78 397.386L1154.31 397.211L1154.73 396.108L1155.19 396.283L1158.29 388.011L1157.82 387.836L1158.23 386.733L1158.7 386.908L1161.8 378.636L1161.33 378.461L1161.74 377.358L1162.21 377.533L1165.31 369.262L1164.84 369.086L1165.25 367.983L1165.72 368.159L1168.81 359.887L1168.35 359.712L1168.76 358.609L1169.23 358.784L1172.32 350.512L1171.85 350.337L1172.27 349.234L1172.74 349.409L1175.83 341.137L1175.36 340.962L1175.78 339.859L1176.24 340.034L1179.34 331.763L1178.87 331.587L1179.28 330.484L1179.75 330.66L1182.85 322.388L1182.38 322.213L1182.79 321.11L1183.26 321.285L1186.36 313.013L1185.89 312.838L1186.3 311.735L1186.77 311.91L1189.86 303.638L1189.4 303.463L1189.81 302.36L1190.28 302.535L1193.37 294.264L1192.9 294.088L1192.93 294.007L1192.85 293.977L1193.03 293.508L1184.76 290.45L1184.58 290.919L1183.48 290.511L1183.65 290.042L1175.38 286.983L1175.21 287.452L1174.11 287.044L1174.28 286.575L1166.01 283.517L1165.84 283.986L1164.73 283.578L1164.91 283.109L1156.64 280.05L1156.46 280.519L1155.36 280.111L1155.53 279.643L1147.26 276.584L1147.09 277.053L1145.99 276.645L1146.16 276.176L1137.89 273.117L1137.72 273.586L1136.62 273.179L1136.79 272.71L1128.52 269.651L1128.34 270.12L1127.24 269.712L1127.42 269.243L1119.15 266.185L1118.97 266.654L1117.87 266.246L1118.04 265.777L1109.77 262.718L1109.6 263.187L1108.5 262.779L1108.67 262.31L1100.4 259.252L1100.23 259.721L1099.12 259.313L1099.3 258.844L1091.03 255.785L1090.85 256.254L1089.75 255.847L1089.92 255.378L1081.65 252.319L1081.48 252.788L1080.38 252.38L1080.55 251.911L1072.28 248.853L1072.11 249.321L1071 248.914L1071.18 248.445L1062.91 245.386L1062.73 245.855L1062.65 245.824L1062.62 245.907L1062.15 245.732L1059.08 253.986L1059.55 254.16L1059.14 255.26L1058.67 255.086L1055.6 263.339L1056.07 263.513L1055.66 264.614L1055.2 264.44L1052.13 272.693L1052.6 272.867L1052.19 273.967L1051.72 273.793L1048.65 282.046L1049.12 282.221L1048.71 283.321L1048.24 283.147L1045.17 291.4L1045.64 291.574L1045.23 292.675L1044.76 292.5L1041.69 300.754L1042.16 300.928L1041.75 302.028L1041.28 301.854L1038.22 310.107L1038.68 310.281L1038.28 311.382L1037.81 311.208L1034.74 319.461L1035.21 319.635L1034.8 320.735L1034.33 320.561L1031.26 328.814L1031.73 328.989L1031.32 330.089L1030.85 329.915L1027.78 338.168L1028.25 338.342L1027.84 339.443L1027.37 339.268L1024.31 347.522L1024.77 347.696L1024.36 348.796L1023.9 348.622L1020.83 356.875L1021.3 357.049L1020.89 358.15L1020.42 357.976L1017.35 366.229L1017.82 366.403L1017.41 367.503L1016.94 367.329L1013.87 375.582L1014.34 375.757L1014.31 375.839L1014.39 375.869L1014.22 376.338L1022.46 379.415L1022.64 378.947L1023.73 379.357L1023.56 379.825L1031.8 382.903L1031.98 382.434L1033.08 382.844L1032.9 383.313L1041.15 386.39L1041.32 385.922L1042.42 386.332L1042.24 386.8L1050.49 389.878L1050.66 389.409L1051.76 389.82L1051.59 390.288L1059.83 393.365L1060.01 392.897L1061.1 393.307L1060.93 393.776L1069.17 396.853L1069.35 396.384L1070.45 396.795L1070.27 397.263L1078.52 400.34L1078.69 399.872L1079.79 400.282L1079.61 400.751L1087.86 403.828L1088.03 403.36L1089.13 403.77L1088.96 404.238L1097.2 407.316L1097.38 406.847L1098.47 407.257L1098.3 407.726L1106.54 410.803L1106.72 410.335L1107.82 410.745L1107.64 411.213L1115.89 414.291L1116.06 413.822L1117.16 414.233L1116.99 414.701L1125.23 417.778L1125.4 417.31L1126.5 417.72L1126.33 418.189L1134.57 421.266L1134.75 420.797L1135.84 421.208L1135.67 421.676L1143.91 424.753L1144.09 424.285L1144.17 424.315L1144.2 424.232L1144.67 424.407Z" stroke="#2781DB" stroke-dasharray="1.15 8.6"/>
</g>
<g id="square-4" filter="url(#filter3_f_1032_12)">
<path d="M588.695 201.983L721.83 159.955L679.753 26.2857L546.462 68.811L588.695 201.983Z" fill="url(#paint3_linear_1032_12)"/>
<path d="M721.653 159.393L719.001 150.969L718.524 151.119L718.171 149.996L718.648 149.845L715.996 141.421L715.519 141.571L715.165 140.448L715.642 140.298L712.99 131.873L712.513 132.023L712.16 130.9L712.637 130.75L709.985 122.325L709.508 122.475L709.154 121.352L709.631 121.202L706.979 112.778L706.502 112.928L706.149 111.804L706.626 111.654L703.974 103.23L703.497 103.38L703.143 102.257L703.62 102.106L700.968 93.6819L700.491 93.8321L700.138 92.7088L700.615 92.5587L697.963 84.1341L697.486 84.2842L697.132 83.161L697.609 83.0108L694.957 74.5863L694.48 74.7364L694.127 73.6132L694.603 73.463L691.951 65.0385L691.475 65.1886L691.121 64.0654L691.598 63.9152L688.946 55.4907L688.469 55.6408L688.115 54.5176L688.592 54.3674L685.94 45.9429L685.463 46.093L685.11 44.9697L685.587 44.8196L682.935 36.3951L682.458 36.5452L682.104 35.4219L682.581 35.2718L679.929 26.8473L679.452 26.9974L679.426 26.9146L679.344 26.9407L679.193 26.4643L670.792 29.1445L670.944 29.6209L669.824 29.9782L669.672 29.5019L661.271 32.182L661.423 32.6584L660.303 33.0157L660.151 32.5394L651.75 35.2196L651.902 35.6959L650.782 36.0533L650.63 35.5769L642.23 38.2571L642.381 38.7334L641.261 39.0908L641.109 38.6144L632.709 41.2946L632.861 41.771L631.741 42.1283L631.589 41.652L623.188 44.3321L623.34 44.8085L622.22 45.1658L622.068 44.6895L613.667 47.3697L613.819 47.846L612.699 48.2034L612.547 47.727L604.146 50.4072L604.298 50.8835L603.178 51.2409L603.026 50.7645L594.626 53.4447L594.778 53.921L593.658 54.2784L593.506 53.8021L585.105 56.4822L585.257 56.9586L584.137 57.3159L583.985 56.8396L575.584 59.5198L575.736 59.9961L574.616 60.3535L574.464 59.8771L566.063 62.5573L566.215 63.0336L565.095 63.391L564.943 62.9146L556.543 65.5948L556.695 66.0711L555.574 66.4285L555.423 65.9522L547.022 68.6323L547.174 69.1087L547.089 69.1356L547.116 69.2194L546.639 69.3705L549.301 77.7637L549.778 77.6126L550.133 78.7317L549.656 78.8828L552.318 87.276L552.794 87.1249L553.149 88.244L552.673 88.3951L555.334 96.7883L555.811 96.6372L556.166 97.7563L555.689 97.9074L558.351 106.301L558.828 106.149L559.182 107.269L558.706 107.42L561.368 115.813L561.844 115.662L562.199 116.781L561.723 116.932L564.384 125.325L564.861 125.174L565.216 126.293L564.739 126.444L567.401 134.837L567.878 134.686L568.232 135.805L567.756 135.957L570.418 144.35L570.894 144.199L571.249 145.318L570.773 145.469L573.434 153.862L573.911 153.711L574.266 154.83L573.789 154.981L576.451 163.374L576.928 163.223L577.282 164.342L576.806 164.493L579.468 172.887L579.944 172.735L580.299 173.855L579.822 174.006L582.484 182.399L582.961 182.248L583.316 183.367L582.839 183.518L585.501 191.911L585.977 191.76L586.332 192.879L585.856 193.03L588.518 201.423L588.994 201.272L589.021 201.356L589.104 201.33L589.254 201.806L597.645 199.158L597.495 198.681L598.614 198.328L598.764 198.804L607.155 196.156L607.004 195.679L608.123 195.326L608.274 195.802L616.665 193.154L616.514 192.677L617.633 192.324L617.783 192.8L626.174 190.152L626.024 189.675L627.142 189.322L627.293 189.798L635.684 187.15L635.533 186.673L636.652 186.32L636.803 186.796L645.193 184.148L645.043 183.671L646.162 183.318L646.312 183.794L654.703 181.146L654.553 180.669L655.671 180.316L655.822 180.792L664.213 178.144L664.062 177.667L665.181 177.314L665.332 177.79L673.722 175.142L673.572 174.665L674.691 174.312L674.841 174.788L683.232 172.14L683.082 171.663L684.2 171.31L684.351 171.786L692.742 169.138L692.591 168.661L693.71 168.308L693.861 168.784L702.251 166.136L702.101 165.659L703.22 165.306L703.37 165.782L711.761 163.134L711.61 162.657L712.729 162.304L712.88 162.78L721.271 160.131L721.12 159.655L721.203 159.628L721.176 159.543L721.653 159.393Z" stroke="#2781DB" stroke-dasharray="1.15 8.6"/>
</g>
</g>
<defs>
<filter id="filter0_f_1032_12" x="0.220703" y="224.023" width="222.155" height="221.833" filterUnits="userSpaceOnUse" color-interpolation-filters="sRGB">
<feFlood flood-opacity="0" result="BackgroundImageFix"/>
<feBlend mode="normal" in="SourceGraphic" in2="BackgroundImageFix" result="shape"/>
<feGaussianBlur stdDeviation="10" result="effect1_foregroundBlur_1032_12"/>
</filter>
<filter id="filter1_f_1032_12" x="539.679" y="471.897" width="217.049" height="217.376" filterUnits="userSpaceOnUse" color-interpolation-filters="sRGB">
<feFlood flood-opacity="0" result="BackgroundImageFix"/>
<feBlend mode="normal" in="SourceGraphic" in2="BackgroundImageFix" result="shape"/>
<feGaussianBlur stdDeviation="10" result="effect1_foregroundBlur_1032_12"/>
</filter>
<filter id="filter2_f_1032_12" x="993.668" y="225.182" width="219.911" height="219.776" filterUnits="userSpaceOnUse" color-interpolation-filters="sRGB">
<feFlood flood-opacity="0" result="BackgroundImageFix"/>
<feBlend mode="normal" in="SourceGraphic" in2="BackgroundImageFix" result="shape"/>
<feGaussianBlur stdDeviation="10" result="effect1_foregroundBlur_1032_12"/>
</filter>
<filter id="filter3_f_1032_12" x="526.462" y="6.28564" width="215.368" height="215.697" filterUnits="userSpaceOnUse" color-interpolation-filters="sRGB">
<feFlood flood-opacity="0" result="BackgroundImageFix"/>
<feBlend mode="normal" in="SourceGraphic" in2="BackgroundImageFix" result="shape"/>
<feGaussianBlur stdDeviation="10" result="effect1_foregroundBlur_1032_12"/>
</filter>
<linearGradient id="paint0_linear_1032_12" x1="161.307" y1="348.796" x2="65.1433" y2="323.525" gradientUnits="userSpaceOnUse">
<stop stop-color="#2781DB"/>
<stop offset="1" stop-color="#2781DB" stop-opacity="0"/>
</linearGradient>
<linearGradient id="paint1_linear_1032_12" x1="664.914" y1="531.465" x2="634.123" y2="626.006" gradientUnits="userSpaceOnUse">
<stop stop-color="#2781DB"/>
<stop offset="1" stop-color="#2781DB" stop-opacity="0"/>
</linearGradient>
<linearGradient id="paint2_linear_1032_12" x1="1059.64" y1="362.483" x2="1143.12" y2="308.485" gradientUnits="userSpaceOnUse">
<stop stop-color="#2781DB"/>
<stop offset="1" stop-color="#2781DB" stop-opacity="0"/>
</linearGradient>
<linearGradient id="paint3_linear_1032_12" x1="616.52" y1="162.931" x2="649.082" y2="68.9847" gradientUnits="userSpaceOnUse">
<stop stop-color="#2781DB"/>
<stop offset="1" stop-color="#2781DB" stop-opacity="0"/>
</linearGradient>
</defs>
</svg>
